<svg width="61" height="61" viewBox="0 0 61 61" fill="none" xmlns="http://www.w3.org/2000/svg">
<path fill-rule="evenodd" clip-rule="evenodd" d="M59.3355 7.39908C59.1762 7.36221 59.0083 7.41001 58.8926 7.52654L53.6792 12.7814H50.6666L47.6072 9.61137V6.58518L52.7451 1.37082C52.8594 1.25474 52.9058 1.08768 52.868 0.929274C52.8302 0.770863 52.7137 0.642951 52.5589 0.590602C51.3927 0.197306 50.1737 0.000203044 48.9428 0.000203044C45.2493 0.000203044 41.9035 1.71951 39.749 4.7193C37.7452 7.50879 37.1039 10.9415 38.0011 14.2581L38.1117 14.6673L26.5126 26.2668L23.8151 28.9644L14.6678 38.1121L14.2585 38.0015C10.9406 37.1048 7.50651 37.748 4.71611 39.7527C1.71769 41.9067 0.000658248 45.252 0.000658248 48.9442C0.000658248 50.1746 0.198217 51.3941 0.591057 52.5603C0.643406 52.7155 0.772228 52.833 0.93155 52.8698C1.09133 52.9067 1.2593 52.8589 1.37492 52.7424L6.58837 47.488H9.60637L12.781 50.6625V53.681L7.52654 58.894C7.41001 59.0096 7.36221 59.1776 7.39908 59.3374C7.43596 59.4971 7.5534 59.626 7.70862 59.6779C8.8744 60.0707 10.0939 60.2683 11.3248 60.2683C15.0174 60.2683 18.3618 58.5508 20.5162 55.5523C22.5209 52.762 23.1642 49.3283 22.2674 46.0104L22.1568 45.6011L31.2691 36.4889L36.4547 31.3023L38.1613 29.5962L45.6007 22.1568L46.009 22.266C46.9663 22.5219 47.9527 22.6498 48.9437 22.6498C55.1877 22.6498 60.2683 17.5692 60.2683 11.3252C60.2683 10.0943 60.0707 8.87485 59.6779 7.70862C59.6255 7.5534 59.4967 7.43595 59.3369 7.39908H59.3355ZM48.9423 21.7034C47.8143 21.7034 46.6959 21.5222 45.6271 21.1626C45.4568 21.1053 45.2684 21.1494 45.1414 21.2764C37.1858 29.2316 29.2306 37.1867 21.2755 45.1423C21.1481 45.2698 21.1044 45.4577 21.1617 45.6285C22.2387 48.8263 21.7143 52.2612 19.7465 55.0006C17.7759 57.7437 14.7015 59.3223 11.3238 59.3223C10.9469 59.3223 10.5696 59.3019 10.1945 59.2618L8.66318 59.0979L13.5858 54.2131C13.6754 54.1244 13.7255 54.0033 13.7255 53.8772V50.4664C13.7255 50.3407 13.6754 50.2206 13.5867 50.1318L10.1349 46.68C10.0461 46.5912 9.92592 46.5411 9.80028 46.5411H6.38899C6.2629 46.5411 6.14181 46.5912 6.05259 46.6809L1.17008 51.6021L1.00438 50.0735C0.963869 49.6984 0.94384 49.3206 0.94384 48.9432C0.94384 45.5652 2.52249 42.4912 5.26554 40.5206C8.00496 38.5528 11.4404 38.0279 14.6382 39.1054C14.8089 39.1627 14.9964 39.1181 15.1239 38.9911C23.0849 31.0419 31.0342 23.0808 38.9893 15.1257C39.1168 14.9987 39.1605 14.8107 39.1031 14.6405C38.0297 11.4536 38.5541 8.00177 40.5156 5.27146C42.4866 2.52704 45.5611 0.946572 48.9405 0.946572C49.3293 0.946572 49.7175 0.967966 50.104 1.01076L51.6057 1.1769L46.7951 6.05942C46.7077 6.14773 46.659 6.26699 46.659 6.39126V9.8021C46.659 9.92501 46.7064 10.0425 46.792 10.1308L50.1231 13.5826C50.2124 13.675 50.3353 13.7269 50.4636 13.7269H53.8749C54.001 13.7269 54.1216 13.6763 54.2109 13.5871L59.0934 8.66683L59.2591 10.1949C59.2996 10.57 59.3196 10.9479 59.3196 11.3252C59.3196 17.048 54.6642 21.7034 48.9414 21.7034H48.9423ZM37.3424 22.2556L22.2542 37.3437C22.0694 37.5286 22.0698 37.8281 22.2542 38.0129C22.439 38.1982 22.7385 38.1977 22.9233 38.0129L38.0115 22.9247C38.1963 22.7399 38.1963 22.4408 38.0115 22.2556C37.8263 22.0703 37.5272 22.0703 37.3419 22.2556H37.3424ZM25.6796 21.6301L12.882 8.80293V5.58919C12.882 5.42304 12.7946 5.26919 12.6521 5.18361L4.12662 0.0675732C3.93999 -0.0444069 3.70237 -0.0148187 3.54852 0.138585L0.138585 3.54806C-0.0148187 3.70192 -0.0444069 3.93999 0.0675732 4.12617L5.1827 12.6517C5.26827 12.7942 5.42168 12.8816 5.58828 12.8816L8.80202 12.8825L21.6005 25.7092L22.2692 25.0405L9.33279 12.0754C9.24402 11.9866 9.12157 11.9488 8.99821 11.9484L5.85594 11.9475L1.06948 3.95592L3.95638 1.06902L11.9352 5.85731V8.99912C11.9352 9.1243 11.9848 9.24448 12.0736 9.33324L25.01 22.2993L25.6792 21.6301H25.6796ZM40.9676 32.2578L31.478 41.746C31.2932 41.9308 31.2932 42.2304 31.478 42.4152C31.6628 42.6 31.9623 42.6004 32.1476 42.4152L33.3639 41.1989L49.1526 58.3491C49.1576 58.3541 49.1627 58.3591 49.1672 58.3637C51.7077 60.9042 55.8227 60.9046 58.3632 58.3632C60.8974 55.8287 60.8969 51.7022 58.3632 49.1677C58.3587 49.1631 58.3532 49.1586 58.3487 49.154L41.1697 33.3935L42.3792 32.184C42.564 31.9992 42.564 31.7001 42.3792 31.5149C42.1944 31.33 41.8949 31.3296 41.7101 31.5149L40.9681 32.2573L40.9676 32.2578ZM40.4997 34.064L57.7018 49.845L57.7141 49.8578C59.8609 52.0273 59.8522 55.5369 57.6941 57.6954C55.5319 59.8581 52.0282 59.8663 49.8555 57.7146L49.8436 57.7027L34.0335 40.5293L40.4997 34.064ZM52.5785 53.249C52.7638 53.4338 53.0633 53.4329 53.2481 53.2477C53.4325 53.0624 53.432 52.7633 53.2467 52.5785L42.3783 41.7451C42.1935 41.5608 41.894 41.5612 41.7091 41.746C41.5243 41.9313 41.5243 42.2304 41.7096 42.4152L52.578 53.2486L52.5785 53.249Z" fill="white"/>
</svg>
