<?xml version="1.0" encoding="utf-8"?>
<!-- Generator: Adobe Illustrator 21.1.0, SVG Export Plug-In . SVG Version: 6.00 Build 0)  -->
<svg version="1.1" id="Layer_1" xmlns="http://www.w3.org/2000/svg" xmlns:xlink="http://www.w3.org/1999/xlink" x="0px" y="0px"
	 viewBox="0 0 84 84" style="enable-background:new 0 0 84 84;" xml:space="preserve">
<style type="text/css">
	.st0{fill:#040000;}
</style>
<g>
	<g>
		<path class="st0" d="M60,78H2.5C1.1,78,0,76.9,0,75.5v-67C0,7.2,1.1,6,2.5,6H60c1.4,0,2.5,1.1,2.5,2.5V28h-2V8.5
			C60.5,8.3,60.3,8,60,8H2.5C2.2,8,2,8.3,2,8.5v67C2,75.8,2.2,76,2.5,76H60c0.3,0,0.5-0.2,0.5-0.5V46.5h2v29.1
			C62.5,76.9,61.4,78,60,78z"/>
	</g>
	<g>
		<g id="create_6_">
			<g>
				<path class="st0" d="M49.6,60.2H39.2V49.8l27.1-27.4l10.4,10.4L49.6,60.2z M41.2,58.2h7.6l25.1-25.4l-7.6-7.6L41.2,50.6V58.2z
					 M78.2,31.9L67.7,21.4l5-5c1.4-1.3,3.4-1.4,4.7,0l5.5,5.5c1.3,1.3,1.3,3.4,0,4.7L78.2,31.9z M70.5,21.4l7.6,7.6l3.4-3.8
					c0.6-0.6,0.6-1.3,0-1.9L76,17.9c-0.6-0.6-1.3-0.6-1.9,0L70.5,21.4z"/>
			</g>
		</g>
	</g>
	<g>
		<g>
			<path class="st0" d="M14.1,24.9"/>
			<polyline class="st0" points="48.4,25.9 14.1,25.9 14.1,23.9 48.4,23.9 			"/>
		</g>
		<g>
			<path class="st0" d="M14.1,33.4"/>
			<polyline class="st0" points="48.4,34.4 14.1,34.4 14.1,32.4 48.4,32.4 			"/>
		</g>
		<g>
			<path class="st0" d="M14.1,42"/>
			<polyline class="st0" points="35.6,43 14.1,43 14.1,41 35.6,41 			"/>
		</g>
		<g>
			<path class="st0" d="M14.1,50.6"/>
			<polyline class="st0" points="29.3,51.6 14.1,51.6 14.1,49.6 29.3,49.6 			"/>
		</g>
		<g>
			<path class="st0" d="M14.1,59.2"/>
			<polyline class="st0" points="29.3,60.2 14.1,60.2 14.1,58.2 29.3,58.2 			"/>
		</g>
	</g>
</g>
</svg>
