<?xml version="1.0" encoding="utf-8"?>
<!-- Generator: Adobe Illustrator 21.1.0, SVG Export Plug-In . SVG Version: 6.00 Build 0)  -->
<svg version="1.1" id="Layer_1" xmlns="http://www.w3.org/2000/svg" xmlns:xlink="http://www.w3.org/1999/xlink" x="0px" y="0px"
	 viewBox="0 0 84 84" style="enable-background:new 0 0 84 84;" xml:space="preserve">
<style type="text/css">
	.st0{fill:#FFFFFF;}
</style>
<path class="st0" d="M78.4,10.3H5.6c-3.1,0-5.6,2.5-5.6,5.6v52.3c0,3.1,2.5,5.6,5.6,5.6h72.8c3.1,0,5.6-2.5,5.6-5.6v-6.4v-2.2V15.9
	C84,12.8,81.5,10.3,78.4,10.3z M5.6,12.6h72.8c1.5,0,2.7,1,3.1,2.3L43.1,47.8c-0.6,0.6-1.6,0.6-2.3-0.1L2.5,15
	C2.9,13.6,4.1,12.6,5.6,12.6z M81.6,61.8v6.4c0,1.8-1.4,3.2-3.2,3.2H5.6c-1.8,0-3.2-1.4-3.2-3.2V18l36.8,31.5
	c0.7,0.7,1.7,1.2,2.8,1.2c1.1,0,2-0.4,2.7-1.1L81.6,18v41.6V61.8z"/>
</svg>
