<?xml version="1.0" encoding="UTF-8"?>
<!DOCTYPE svg PUBLIC "-//W3C//DTD SVG 1.1//EN" "http://www.w3.org/Graphics/SVG/1.1/DTD/svg11.dtd">
<!-- Creator: CorelDRAW 2019 (64-Bit) -->
<svg xmlns="http://www.w3.org/2000/svg" xml:space="preserve" width="15.4711mm" height="16.6582mm" version="1.1" style="shape-rendering:geometricPrecision; text-rendering:geometricPrecision; image-rendering:optimizeQuality; fill-rule:evenodd; clip-rule:evenodd"
viewBox="0 0 12.51 13.47"
 xmlns:xlink="http://www.w3.org/1999/xlink"
 xmlns:xodm="http://www.corel.com/coreldraw/odm/2003">
 <defs>
  <style type="text/css">
   <![CDATA[
    .fil0 {fill:#222222;fill-rule:nonzero}
   ]]>
  </style>
 </defs>
 <g id="Слой_x0020_1">
  <metadata id="CorelCorpID_0Corel-Layer"/>
  <path class="fil0" d="M9.47 6.12l0 -3.11 -9.06 0 0 10.06 9.26 0 0 0.4 -9.47 0c-0.11,0 -0.2,-0.09 -0.2,-0.2l0 -10.47c0,-0.11 0.09,-0.2 0.2,-0.2l9.47 0c0.11,0 0.2,0.09 0.2,0.2l0 3.32 -0.4 0z"/>
  <path class="fil0" d="M6.81 4.69l0 -2.72c0,-0.76 -0.48,-1.23 -1.1,-1.44 -0.25,-0.09 -0.53,-0.13 -0.81,-0.13 -0.28,0 -0.55,0.04 -0.81,0.13 -0.64,0.21 -1.14,0.7 -1.14,1.44l0 2.72 -0.4 0 0 -2.72c0,-0.94 0.62,-1.56 1.42,-1.82 0.3,-0.1 0.62,-0.15 0.94,-0.15 0.32,-0 0.64,0.05 0.93,0.15 0.77,0.26 1.38,0.87 1.38,1.83l0 2.72 -0.4 0z"/>
  <path class="fil0" d="M3.95 7.47l8.36 0c0.11,0 0.2,0.09 0.2,0.2l0 5.6c0,0.11 -0.09,0.2 -0.2,0.2l-8.36 0c-0.11,0 -0.2,-0.09 -0.2,-0.2l0 -5.6c0,-0.11 0.09,-0.2 0.2,-0.2zm8.16 0.4l-7.96 0 0 5.19 7.96 0 0 -5.19z"/>
  <path class="fil0" d="M10.17 8.86l0 1.05c0,0.84 -0.51,1.36 -1.18,1.59 -0.26,0.09 -0.53,0.13 -0.81,0.12 -0.28,-0 -0.56,-0.05 -0.82,-0.13 -0.71,-0.23 -1.27,-0.77 -1.27,-1.58l0 -1.05 0.4 0 0 1.05c0,0.6 0.44,1.01 1,1.19 0.22,0.07 0.46,0.11 0.69,0.11 0.24,0 0.47,-0.03 0.68,-0.1 0.51,-0.17 0.9,-0.56 0.9,-1.2l0 -1.05 0.4 0z"/>
 </g>
</svg>
