<?xml version="1.0" encoding="UTF-8"?>
<!DOCTYPE svg PUBLIC "-//W3C//DTD SVG 1.1//EN" "http://www.w3.org/Graphics/SVG/1.1/DTD/svg11.dtd">
<!-- Creator: CorelDRAW 2019 (64-Bit) -->
<svg xmlns="http://www.w3.org/2000/svg" xml:space="preserve" width="15.4355mm" height="17.0457mm" version="1.1" style="shape-rendering:geometricPrecision; text-rendering:geometricPrecision; image-rendering:optimizeQuality; fill-rule:evenodd; clip-rule:evenodd"
viewBox="0 0 12.11 13.37"
 xmlns:xlink="http://www.w3.org/1999/xlink"
 xmlns:xodm="http://www.corel.com/coreldraw/odm/2003">
 <defs>
  <style type="text/css">
   <![CDATA[
    .fil0 {fill:#222222;fill-rule:nonzero}
   ]]>
  </style>
 </defs>
 <g id="Слой_x0020_1">
  <metadata id="CorelCorpID_0Corel-Layer"/>
  <path class="fil0" d="M-0 11.94l0 -10.5c0,-0.36 0.18,-0.72 0.44,-0.99 0.27,-0.27 0.63,-0.46 0.98,-0.46l7.39 0c0.35,0 0.71,0.18 0.98,0.46 0.26,0.27 0.44,0.63 0.44,0.99l0 10.5 -0.39 0 0 -10.5c0,-0.25 -0.13,-0.51 -0.33,-0.71 -0.2,-0.2 -0.46,-0.34 -0.7,-0.34l-7.39 0c-0.24,0 -0.5,0.14 -0.7,0.34 -0.2,0.2 -0.33,0.46 -0.33,0.71l0 10.5 -0.39 0z"/>
  <path class="fil0" d="M10.05 1.69l1.87 0c0.11,0 0.2,0.09 0.2,0.2l0 5.45c0,0.11 -0.09,0.2 -0.2,0.2l-1.87 0c-0.11,0 -0.2,-0.09 -0.2,-0.2l0 -5.45c0,-0.11 0.09,-0.2 0.2,-0.2zm1.67 0.39l-1.48 0 0 5.06 1.48 0 0 -5.06z"/>
  <path class="fil0" d="M1.95 1.38l1.68 0c0.11,0 0.2,0.09 0.2,0.2l0 10.18c0,0.11 -0.09,0.2 -0.2,0.2l-1.68 0c-0.11,0 -0.2,-0.09 -0.2,-0.2l0 -10.18c0,-0.11 0.09,-0.2 0.2,-0.2zm1.48 0.39l-1.29 0 0 9.79 1.29 0 0 -9.79z"/>
  <path class="fil0" d="M8.57 1.72l0 1.48c0,0.11 -0.09,0.2 -0.2,0.2l-3.34 0c-0.11,0 -0.2,-0.09 -0.2,-0.2l0 -1.48c0,-0.11 0.09,-0.2 0.2,-0.2l3.34 0c0.11,0 0.2,0.09 0.2,0.2zm-0.39 1.28l0 -1.08 -2.95 0 0 1.08 2.95 0z"/>
  <path class="fil0" d="M8.57 4.52l0 1.48c0,0.11 -0.09,0.2 -0.2,0.2l-3.34 0c-0.11,0 -0.2,-0.09 -0.2,-0.2l0 -1.48c0,-0.11 0.09,-0.2 0.2,-0.2l3.34 0c0.11,0 0.2,0.09 0.2,0.2zm-0.39 1.28l0 -1.08 -2.95 0 0 1.08 2.95 0z"/>
  <path class="fil0" d="M8.57 7.33l0 1.48c0,0.11 -0.09,0.2 -0.2,0.2l-3.34 0c-0.11,0 -0.2,-0.09 -0.2,-0.2l0 -1.48c0,-0.11 0.09,-0.2 0.2,-0.2l3.34 0c0.11,0 0.2,0.09 0.2,0.2zm-0.39 1.28l0 -1.08 -2.95 0 0 1.08 2.95 0z"/>
  <path class="fil0" d="M8.57 10.13l0 1.48c0,0.11 -0.09,0.2 -0.2,0.2l-3.34 0c-0.11,0 -0.2,-0.09 -0.2,-0.2l0 -1.48c0,-0.11 0.09,-0.2 0.2,-0.2l3.34 0c0.11,0 0.2,0.09 0.2,0.2zm-0.39 1.28l0 -1.08 -2.95 0 0 1.08 2.95 0z"/>
  <polygon class="fil0" points="0.03,12.98 12.05,12.98 12.05,13.37 0.03,13.37 "/>
 </g>
</svg>
