<?xml version="1.0" encoding="UTF-8"?>
<!DOCTYPE svg PUBLIC "-//W3C//DTD SVG 1.1//EN" "http://www.w3.org/Graphics/SVG/1.1/DTD/svg11.dtd">
<!-- Creator: CorelDRAW 2019 (64-Bit) -->
<svg xmlns="http://www.w3.org/2000/svg" xml:space="preserve" width="16.061mm" height="17.9083mm" version="1.1" style="shape-rendering:geometricPrecision; text-rendering:geometricPrecision; image-rendering:optimizeQuality; fill-rule:evenodd; clip-rule:evenodd"
viewBox="0 0 12.76 14.23"
 xmlns:xlink="http://www.w3.org/1999/xlink"
 xmlns:xodm="http://www.corel.com/coreldraw/odm/2003">
 <defs>
  <style type="text/css">
   <![CDATA[
    .fil0 {fill:#222222;fill-rule:nonzero}
   ]]>
  </style>
 </defs>
 <g id="Слой_x0020_1">
  <metadata id="CorelCorpID_0Corel-Layer"/>
  <path class="fil0" d="M0.2 8.77l2 0c0.11,0 0.2,0.09 0.2,0.2l0 5.07c0,0.11 -0.09,0.2 -0.2,0.2l-2 0c-0.11,0 -0.2,-0.09 -0.2,-0.2l0 -5.07c0,-0.11 0.09,-0.2 0.2,-0.2zm1.8 0.4l-1.6 0 0 4.67 1.6 0 0 -4.67z"/>
  <path class="fil0" d="M3.68 6.12l2 0c0.11,0 0.2,0.09 0.2,0.2l0 7.72c0,0.11 -0.09,0.2 -0.2,0.2l-2 0c-0.11,0 -0.2,-0.09 -0.2,-0.2l0 -7.72c0,-0.11 0.09,-0.2 0.2,-0.2zm1.8 0.4l-1.6 0 0 7.32 1.6 0 0 -7.32z"/>
  <path class="fil0" d="M7.16 0l2 0c0.11,0 0.2,0.09 0.2,0.2l0 13.84c0,0.11 -0.09,0.2 -0.2,0.2l-2 0c-0.11,0 -0.2,-0.09 -0.2,-0.2l0 -13.84c0,-0.11 0.09,-0.2 0.2,-0.2zm1.8 0.4l-1.6 0 0 13.44 1.6 0 0 -13.44z"/>
  <path class="fil0" d="M10.57 3.11l2 0c0.11,0 0.2,0.09 0.2,0.2l0 10.73c0,0.11 -0.09,0.2 -0.2,0.2l-2 0c-0.11,0 -0.2,-0.09 -0.2,-0.2l0 -10.73c0,-0.11 0.09,-0.2 0.2,-0.2zm1.8 0.4l-1.6 0 0 10.33 1.6 0 0 -10.33z"/>
  <path class="fil0" d="M0.12 7.46l5.45 -5.45c0.08,-0.08 0.2,-0.08 0.28,0 0.04,0.04 0.06,0.09 0.06,0.14l0 1.94 -0.4 0 0 -1.46 -5.11 5.11 -0.28 -0.28z"/>
  <polygon class="fil0" points="5.7,2.35 3.74,2.35 3.74,1.95 5.7,1.95 "/>
 </g>
</svg>
