<?xml version="1.0" encoding="UTF-8"?>
<!DOCTYPE svg PUBLIC "-//W3C//DTD SVG 1.1//EN" "http://www.w3.org/Graphics/SVG/1.1/DTD/svg11.dtd">
<!-- Creator: CorelDRAW 2019 (64-Bit) -->
<svg xmlns="http://www.w3.org/2000/svg" xml:space="preserve" width="14.5856mm" height="17.2558mm" version="1.1" style="shape-rendering:geometricPrecision; text-rendering:geometricPrecision; image-rendering:optimizeQuality; fill-rule:evenodd; clip-rule:evenodd"
viewBox="0 0 10.29 12.17"
 xmlns:xlink="http://www.w3.org/1999/xlink"
 xmlns:xodm="http://www.corel.com/coreldraw/odm/2003">
 <defs>
  <style type="text/css">
   <![CDATA[
    .fil0 {fill:#222222;fill-rule:nonzero}
   ]]>
  </style>
 </defs>
 <g id="Слой_x0020_1">
  <metadata id="CorelCorpID_0Corel-Layer"/>
  <path class="fil0" d="M-0 10.89l0 -3.92c0,-0.22 0.09,-0.45 0.25,-0.62 0.15,-0.16 0.35,-0.27 0.58,-0.27l0.9 0 0 -3.46c0,-0.29 0.1,-0.55 0.27,-0.74 0.17,-0.2 0.41,-0.32 0.68,-0.32l4.95 0c0.26,0 0.5,0.12 0.68,0.32 0.17,0.19 0.27,0.46 0.27,0.74l0 3.46 0.9 0c0.23,0 0.43,0.11 0.58,0.27 0.15,0.17 0.25,0.4 0.25,0.62l0 4.1 -10.29 0 0 -0.18zm0.35 -3.92l0 3.75 9.58 0 0 -3.75c0,-0.14 -0.06,-0.28 -0.15,-0.38 -0.08,-0.09 -0.19,-0.15 -0.32,-0.15l-1.25 0 0 -3.82c0,-0.2 -0.07,-0.38 -0.19,-0.51 -0.11,-0.12 -0.25,-0.2 -0.41,-0.2l-4.95 0c-0.16,0 -0.3,0.08 -0.41,0.2 -0.11,0.13 -0.19,0.31 -0.19,0.51l0 3.82 -1.25 0c-0.12,0 -0.23,0.06 -0.32,0.15 -0.1,0.1 -0.15,0.25 -0.15,0.38z"/>
  <path class="fil0" d="M9.73 2.22l0 -0.93c0,-0.2 -0.13,-0.44 -0.32,-0.64 -0.17,-0.18 -0.39,-0.3 -0.6,-0.3l-7.31 0c-0.19,0 -0.44,0.14 -0.64,0.34 -0.19,0.19 -0.33,0.41 -0.33,0.6l0 0.9 -0.35 0 0 -0.9c0,-0.29 0.19,-0.61 0.44,-0.86 0.26,-0.25 0.6,-0.44 0.88,-0.44l7.31 0c0.31,0 0.61,0.17 0.85,0.41 0.25,0.25 0.42,0.59 0.42,0.88l0 0.93 -0.35 0z"/>
  <path class="fil0" d="M3.28 5.77l3.72 0 0 -2.44 -3.72 0 0 2.44zm3.9 0.35l-4.25 0 0 -3.14 4.43 0 0 3.14 -0.18 0z"/>
  <polygon class="fil0" points="0.18,9.32 10.1,9.32 10.1,9.67 0.18,9.67 "/>
  <polygon class="fil0" points="3.51,7.67 6.76,7.67 6.76,8.02 3.51,8.02 "/>
  <path class="fil0" d="M1.9 7.06c0.22,0 0.41,0.09 0.55,0.23 0.14,0.14 0.23,0.34 0.23,0.55 0,0.22 -0.09,0.41 -0.23,0.55l-0 0c-0.14,0.14 -0.34,0.23 -0.55,0.23 -0.22,0 -0.41,-0.09 -0.55,-0.23 -0.14,-0.14 -0.23,-0.34 -0.23,-0.55 0,-0.22 0.09,-0.41 0.23,-0.55 0.14,-0.14 0.34,-0.23 0.55,-0.23zm0.3 0.48c-0.08,-0.08 -0.19,-0.13 -0.3,-0.13 -0.12,0 -0.23,0.05 -0.3,0.13 -0.08,0.08 -0.13,0.19 -0.13,0.3 0,0.12 0.05,0.23 0.13,0.3 0.08,0.08 0.18,0.13 0.3,0.13 0.12,0 0.23,-0.05 0.3,-0.13l0 -0c0.08,-0.08 0.13,-0.18 0.13,-0.3 0,-0.12 -0.05,-0.23 -0.13,-0.3z"/>
  <path class="fil0" d="M8.37 7.06c0.22,0 0.41,0.09 0.55,0.23 0.14,0.14 0.23,0.34 0.23,0.55 0,0.22 -0.09,0.41 -0.23,0.55l-0 0c-0.14,0.14 -0.34,0.23 -0.55,0.23 -0.22,0 -0.41,-0.09 -0.55,-0.23 -0.14,-0.14 -0.23,-0.34 -0.23,-0.55 0,-0.22 0.09,-0.41 0.23,-0.55 0.14,-0.14 0.34,-0.23 0.55,-0.23zm0.3 0.48c-0.08,-0.08 -0.19,-0.13 -0.3,-0.13 -0.12,0 -0.23,0.05 -0.3,0.13 -0.08,0.08 -0.13,0.19 -0.13,0.3 0,0.12 0.05,0.23 0.13,0.3 0.08,0.08 0.18,0.13 0.3,0.13 0.12,0 0.23,-0.05 0.3,-0.13l0 -0c0.08,-0.08 0.13,-0.18 0.13,-0.3 0,-0.12 -0.05,-0.23 -0.13,-0.3z"/>
  <path class="fil0" d="M3.55 10.89c0,0.35 -0.14,0.67 -0.37,0.9l-0 0c-0.23,0.23 -0.55,0.37 -0.9,0.37 -0.35,0 -0.67,-0.14 -0.9,-0.37l-0 -0c-0.23,-0.23 -0.37,-0.55 -0.37,-0.9l0.35 0c0,0.26 0.1,0.49 0.27,0.66 0.17,0.17 0.4,0.27 0.66,0.27 0.26,0 0.49,-0.1 0.66,-0.27 0.17,-0.17 0.27,-0.4 0.27,-0.66l0.35 0z"/>
  <path class="fil0" d="M9.28 10.89c0,0.35 -0.14,0.67 -0.37,0.9l-0 0c-0.23,0.23 -0.55,0.37 -0.9,0.37 -0.35,0 -0.67,-0.14 -0.9,-0.37l-0 -0c-0.23,-0.23 -0.37,-0.55 -0.37,-0.9l0.35 0c0,0.26 0.1,0.49 0.27,0.66 0.17,0.17 0.4,0.27 0.66,0.27 0.26,0 0.49,-0.1 0.66,-0.27 0.17,-0.17 0.27,-0.4 0.27,-0.66l0.35 0z"/>
  <polygon class="fil0" points="1.9,4.85 0.19,4.85 0.19,3.35 0.54,3.35 0.54,4.5 1.9,4.5 "/>
  <polygon class="fil0" points="8.39,4.5 9.74,4.5 9.74,3.35 10.1,3.35 10.1,4.85 8.39,4.85 "/>
 </g>
</svg>
