<?xml version="1.0" encoding="UTF-8"?>
<!DOCTYPE svg PUBLIC "-//W3C//DTD SVG 1.1//EN" "http://www.w3.org/Graphics/SVG/1.1/DTD/svg11.dtd">
<!-- Creator: CorelDRAW 2019 (64-Bit) -->
<svg xmlns="http://www.w3.org/2000/svg" xml:space="preserve" width="16.4194mm" height="17.5111mm" version="1.1" style="shape-rendering:geometricPrecision; text-rendering:geometricPrecision; image-rendering:optimizeQuality; fill-rule:evenodd; clip-rule:evenodd"
viewBox="0 0 12.76 13.61"
 xmlns:xlink="http://www.w3.org/1999/xlink"
 xmlns:xodm="http://www.corel.com/coreldraw/odm/2003">
 <defs>
  <style type="text/css">
   <![CDATA[
    .fil0 {fill:#222222;fill-rule:nonzero}
   ]]>
  </style>
 </defs>
 <g id="Слой_x0020_1">
  <metadata id="CorelCorpID_0Corel-Layer"/>
  <path class="fil0" d="M0.39 3.59l0 8.84c0,0.21 0.09,0.42 0.23,0.56l0 0c0.14,0.14 0.34,0.23 0.56,0.23l10.4 0c0.22,0 0.42,-0.09 0.56,-0.23l0 -0c0.15,-0.15 0.23,-0.35 0.23,-0.56l0 -8.84 0.39 0 0 8.84c0,0.32 -0.13,0.62 -0.35,0.83l-0 0c-0.21,0.21 -0.5,0.34 -0.83,0.34l-10.4 0c-0.33,0 -0.62,-0.13 -0.83,-0.34l-0 -0c-0.22,-0.22 -0.35,-0.52 -0.35,-0.84l0 -8.84 0.39 0z"/>
  <path class="fil0" d="M12.76 3.59l0 8.84c0,0.26 -0.17,0.55 -0.39,0.77 -0.23,0.23 -0.54,0.41 -0.79,0.41l-5.2 0 0 -0.39 5.2 0c0.14,0 0.34,-0.12 0.51,-0.29 0.16,-0.16 0.28,-0.35 0.28,-0.5l0 -8.84 0.39 0z"/>
  <path class="fil0" d="M1.48 1.99c0.61,-0.34 1.56,-0.55 2.53,-0.55 0.88,0 1.79,0.17 2.46,0.56 0.06,0.04 0.1,0.1 0.1,0.17l0 0 0 9.78c0,0.11 -0.09,0.19 -0.19,0.19 -0.04,0 -0.08,-0.01 -0.11,-0.03 -0.68,-0.39 -1.49,-0.58 -2.3,-0.58 -0.83,0 -1.66,0.2 -2.32,0.58 -0.09,0.05 -0.21,0.02 -0.26,-0.07 -0.02,-0.03 -0.03,-0.06 -0.03,-0.1l-0 0 0 -9.78c0,-0.08 0.05,-0.15 0.11,-0.18zm2.53 -0.16c-0.86,0 -1.71,0.17 -2.26,0.45l0 9.35c0.66,-0.32 1.44,-0.48 2.22,-0.48 0.76,0 1.53,0.16 2.21,0.48l0 -9.35c-0.6,-0.31 -1.39,-0.45 -2.17,-0.45z"/>
  <path class="fil0" d="M11.01 2.28c-0.13,-0.07 -0.28,-0.13 -0.45,-0.18 -0.14,-0.05 -0.3,-0.09 -0.47,-0.13l0 8.01c0,0.08 -0.04,0.14 -0.11,0.17l-1.85 1.03c0.23,-0.03 0.46,-0.04 0.7,-0.04 0.76,0.01 1.52,0.17 2.17,0.48l0 -9.35zm-0.32 -0.55c0.22,0.07 0.43,0.16 0.6,0.26 0.07,0.03 0.11,0.1 0.11,0.18l0 9.78c-0,0.03 -0.01,0.07 -0.03,0.1 -0.05,0.09 -0.17,0.12 -0.26,0.07 -0.65,-0.37 -1.45,-0.57 -2.27,-0.58 -0.79,-0.01 -1.58,0.16 -2.25,0.52l-0.02 0.01c-0.09,0.05 -0.21,0.02 -0.26,-0.07 -0.05,-0.09 -0.02,-0.21 0.07,-0.26l3.34 -1.87 0 -8.13c0,-0.01 0,-0.02 0,-0.03 0.02,-0.11 0.12,-0.18 0.22,-0.16 0.26,0.05 0.51,0.11 0.75,0.19z"/>
  <path class="fil0" d="M6.29 1.99l3.51 -1.97c0.09,-0.05 0.21,-0.02 0.26,0.07 0.02,0.03 0.02,0.06 0.02,0.09l0 9.78c0,0.08 -0.04,0.14 -0.11,0.17l-3.51 1.97c-0.09,0.05 -0.21,0.02 -0.26,-0.07 -0.02,-0.03 -0.02,-0.06 -0.02,-0.09l-0 -9.78c0,-0.08 0.04,-0.14 0.11,-0.17zm3.41 -1.47l-3.13 1.75 0 9.34 3.13 -1.75 0 -9.34z"/>
 </g>
</svg>
