<?xml version="1.0" encoding="UTF-8"?>
<!DOCTYPE svg PUBLIC "-//W3C//DTD SVG 1.1//EN" "http://www.w3.org/Graphics/SVG/1.1/DTD/svg11.dtd">
<!-- Creator: CorelDRAW 2019 (64-Bit) -->
<svg xmlns="http://www.w3.org/2000/svg" xml:space="preserve" width="17.904mm" height="15.5749mm" version="1.1" style="shape-rendering:geometricPrecision; text-rendering:geometricPrecision; image-rendering:optimizeQuality; fill-rule:evenodd; clip-rule:evenodd"
viewBox="0 0 14.87 12.94"
 xmlns:xlink="http://www.w3.org/1999/xlink"
 xmlns:xodm="http://www.corel.com/coreldraw/odm/2003">
 <defs>
  <style type="text/css">
   <![CDATA[
    .fil0 {fill:#222222;fill-rule:nonzero}
   ]]>
  </style>
 </defs>
 <g id="Слой_x0020_1">
  <metadata id="CorelCorpID_0Corel-Layer"/>
  <path class="fil0" d="M7.42 2c0.36,-0.54 0.88,-1.07 1.38,-1.39 0.61,-0.38 1.32,-0.61 2.09,-0.61l0.04 -0c1.08,0 2.06,0.44 2.78,1.16 0.71,0.71 1.15,1.7 1.16,2.78l0 0.04c0,0.52 -0.1,1.03 -0.29,1.48 -0.19,0.48 -0.48,0.91 -0.83,1.28 -2.06,2.04 -4.12,4.08 -6.18,6.13 -0.05,0.03 -0.09,0.07 -0.14,0.07 -0.06,0 -0.1,-0.04 -0.15,-0.07l-0 -0 -0.01 -0.01 -0 -0 -0.01 -0.01 -0.02 -0.02 -0.01 -0.01 -0 -0 -0.01 -0.01 -0 -0 -0.01 -0.01 -0 -0 -0.01 -0.01 -0 -0 -0.01 -0.01 -0 -0 -0 -0 -0.01 -0.01 -0 -0 -0 -0 -5.2 -5.16 0.29 -0.29 5.16 5.12 6.03 -5.98c0.31,-0.33 0.57,-0.71 0.74,-1.14 0.17,-0.41 0.26,-0.86 0.26,-1.33l0 -0.04c-0.01,-0.97 -0.41,-1.85 -1.04,-2.49 -0.64,-0.64 -1.51,-1.04 -2.48,-1.04l-0.04 -0c-0.69,0.01 -1.33,0.21 -1.87,0.55 -0.56,0.35 -1.03,0.86 -1.32,1.45 -0,0 -0.07,0.15 -0.27,0.15 -0.08,0 -0.22,-0.04 -0.26,-0.15 -0.3,-0.59 -0.76,-1.1 -1.32,-1.45 -0.54,-0.34 -1.19,-0.54 -1.87,-0.55 -0.96,-0.01 -1.83,0.37 -2.47,0.99 -0.65,0.62 -1.06,1.49 -1.09,2.45l-0 0.53 -0.41 0 0 -0.54c0.04,-1.07 0.5,-2.04 1.22,-2.74 0.72,-0.69 1.69,-1.11 2.76,-1.1 0.77,0.01 1.48,0.23 2.09,0.61 0.56,0.35 1.02,0.83 1.35,1.39zm-6.55 3.71l2.1 0 0.76 -0.76c0.08,-0.08 0.21,-0.08 0.29,0 0.02,0.02 0.03,0.04 0.04,0.07l1.2 2.37 1.23 -3.48c0.04,-0.11 0.16,-0.16 0.26,-0.13 0.06,0.02 0.11,0.07 0.13,0.13l1.65 4.67 1.65 -2.21 0.33 0.25 -1.88 2.51c-0.02,0.04 -0.06,0.07 -0.11,0.08 -0.11,0.04 -0.23,-0.02 -0.26,-0.13l-1.58 -4.48 -1.2 3.38c-0.02,0.05 -0.05,0.09 -0.1,0.12 -0.1,0.05 -0.23,0.01 -0.28,-0.09l-1.3 -2.56 -0.62 0.62c-0.04,0.04 -0.09,0.06 -0.15,0.06l-2.19 0 0 -0.42z"/>
 </g>
</svg>
