<?xml version="1.0" encoding="UTF-8"?>
<!DOCTYPE svg PUBLIC "-//W3C//DTD SVG 1.1//EN" "http://www.w3.org/Graphics/SVG/1.1/DTD/svg11.dtd">
<!-- Creator: CorelDRAW 2019 (64-Bit) -->
<svg xmlns="http://www.w3.org/2000/svg" xml:space="preserve" width="15.6916mm" height="17.6335mm" version="1.1" style="shape-rendering:geometricPrecision; text-rendering:geometricPrecision; image-rendering:optimizeQuality; fill-rule:evenodd; clip-rule:evenodd"
viewBox="0 0 11.09 12.46"
 xmlns:xlink="http://www.w3.org/1999/xlink"
 xmlns:xodm="http://www.corel.com/coreldraw/odm/2003">
 <defs>
  <style type="text/css">
   <![CDATA[
    .fil0 {fill:#222222;fill-rule:nonzero}
   ]]>
  </style>
 </defs>
 <g id="Слой_x0020_1">
  <metadata id="CorelCorpID_0Corel-Layer"/>
  <path class="fil0" d="M0.18 10.55l10.73 0c0.1,0 0.18,0.08 0.18,0.18l0 1.56c0,0.1 -0.08,0.18 -0.18,0.18l-10.73 0c-0.1,0 -0.18,-0.08 -0.18,-0.18l0 -1.56c0,-0.1 0.08,-0.18 0.18,-0.18zm10.56 0.35l-10.38 0 0 1.2 10.38 0 0 -1.2z"/>
  <path class="fil0" d="M1.36 5.59l1.51 0c0.1,0 0.18,0.08 0.18,0.18l0 3.77c0,0.1 -0.08,0.18 -0.18,0.18l-1.51 0c-0.1,0 -0.18,-0.08 -0.18,-0.18l0 -3.77c0,-0.1 0.08,-0.18 0.18,-0.18zm1.33 0.35l-1.16 0 0 3.42 1.16 0 0 -3.42z"/>
  <path class="fil0" d="M4.79 5.59l1.51 0c0.1,0 0.18,0.08 0.18,0.18l0 3.77c0,0.1 -0.08,0.18 -0.18,0.18l-1.51 0c-0.1,0 -0.18,-0.08 -0.18,-0.18l0 -3.77c0,-0.1 0.08,-0.18 0.18,-0.18zm1.33 0.35l-1.16 0 0 3.42 1.16 0 0 -3.42z"/>
  <path class="fil0" d="M8.22 5.59l1.51 0c0.1,0 0.18,0.08 0.18,0.18l0 3.77c0,0.1 -0.08,0.18 -0.18,0.18l-1.51 0c-0.1,0 -0.18,-0.08 -0.18,-0.18l0 -3.77c0,-0.1 0.08,-0.18 0.18,-0.18zm1.33 0.35l-1.16 0 0 3.42 1.16 0 0 -3.42z"/>
  <polygon class="fil0" points="0.18,4.46 10.91,4.46 10.91,4.81 0.18,4.81 "/>
  <path class="fil0" d="M3.24 3.77c0,-0.64 0.26,-1.22 0.68,-1.63 0.42,-0.42 1,-0.68 1.63,-0.68 0.64,0 1.22,0.26 1.63,0.68 0.42,0.42 0.68,1 0.68,1.63l-0.35 0c0,-0.54 -0.22,-1.03 -0.57,-1.38 -0.35,-0.35 -0.84,-0.57 -1.38,-0.57 -0.54,0 -1.03,0.22 -1.38,0.57 -0.35,0.35 -0.57,0.84 -0.57,1.38l-0.35 0z"/>
  <polygon class="fil0" points="5.37,1.64 5.37,0 5.73,0 5.73,1.64 "/>
 </g>
</svg>
