<?xml version="1.0" encoding="UTF-8"?>
<!DOCTYPE svg PUBLIC "-//W3C//DTD SVG 1.1//EN" "http://www.w3.org/Graphics/SVG/1.1/DTD/svg11.dtd">
<!-- Creator: CorelDRAW 2017 -->
<svg xmlns="http://www.w3.org/2000/svg" xml:space="preserve" width="8290px" height="2610px" version="1.1" style="shape-rendering:geometricPrecision; text-rendering:geometricPrecision; image-rendering:optimizeQuality; fill-rule:evenodd; clip-rule:evenodd"
viewBox="0 0 6177 1945"
 xmlns:xlink="http://www.w3.org/1999/xlink">
 <defs>
  <style type="text/css">
   <![CDATA[
    .fil0 {fill:#FEFEFE;fill-rule:nonzero}
   ]]>
  </style>
 </defs>
 <g id="Слой_x0020_1">
  <metadata id="CorelCorpID_0Corel-Layer"/>
  <path class="fil0" d="M4915 1393c0,0 -50,14 -103,14 -69,0 -73,-39 -73,-75 0,-54 22,-65 88,-65 32,0 61,4 88,10l0 115zm177 -256l0 0c0,0 0,-1 0,-1 0,-7 0,-15 -1,-22l0 0c-8,-159 -91,-210 -260,-210 -88,0 -187,14 -255,32l-1 146c50,-15 140,-26 208,-26 92,0 120,11 129,58l0 0c1,5 2,11 2,18 0,0 0,1 0,1 0,6 1,13 1,21 -47,-9 -91,-14 -131,-14 -149,0 -236,32 -236,198 0,97 23,149 82,176 70,33 239,7 284,-8l0 23 177 0 0 -390c0,-1 0,-2 0,-2z"/>
  <path class="fil0" d="M4291 1070l0 271c0,22 -39,38 -91,38 -82,0 -104,-33 -104,-155 0,-154 30,-169 109,-169 24,0 59,4 87,15zm-87 -164c-216,0 -296,87 -296,322 0,220 70,309 243,309 63,0 113,-18 140,-31 -2,71 -46,100 -149,100 -55,0 -113,-8 -181,-27l-4 -1 -33 147 3 1c58,21 146,35 218,35 173,0 332,-35 332,-288l0 -524 -3 -1c-66,-25 -177,-42 -271,-42z"/>
  <polygon class="fil0" points="1961,923 2167,922 2170,922 2304,1259 2431,924 2432,922 2641,923 2410,1527 2409,1529 2198,1529 "/>
  <path class="fil0" d="M2996 1393c0,0 -50,14 -103,14 -69,0 -73,-39 -73,-75 0,-54 22,-65 88,-65 32,0 61,4 88,10l0 115zm-88 -488c-55,0 -118,5 -178,16l-2 0 -57 148 -6 19 7 -2c51,-13 131,-29 193,-29 112,0 130,21 131,97 -47,-9 -91,-14 -131,-14 -149,0 -236,32 -236,198 0,97 23,148 82,176 70,33 239,7 284,-8l0 23 177 0 0 -390c0,-169 -74,-235 -265,-235z"/>
  <path class="fil0" d="M5609 915l-62 161 -21 -3c-9,0 -18,-1 -26,-1 -56,0 -116,18 -116,56l0 400 -187 0 0 -608 187 0 0 42c34,-32 66,-54 140,-58 37,-2 69,5 85,10z"/>
  <polygon class="fil0" points="4785,538 4771,576 2774,576 2788,538 "/>
  <path class="fil0" d="M5039 448c-54,0 -83,24 -94,66l-1 4c-9,35 -1,51 33,63l29 10c10,3 12,8 10,16l-2 6c-3,10 -11,16 -35,16 -13,0 -36,-4 -54,-8l-14 51c20,4 46,8 61,8 57,0 87,-23 98,-66l2 -8c9,-35 1,-52 -32,-63l-27 -10c-12,-3 -14,-8 -12,-16l1 -5c3,-10 10,-16 27,-16 13,0 35,3 54,6l14 -50c-20,-3 -40,-6 -57,-6zm264 55l13 -50 -177 0 -13 50 60 0 -45 171 56 0 45 -171 60 0zm132 94l106 -144 -61 0 -59 96 -9 -96 -62 0 30 144 -20 76 56 0 20 -76zm158 26l45 -171 -56 0 -58 221 139 0 13 -50 -83 0zm298 -121l13 -50 -139 0 -58 221 139 0 13 -50 -83 0 10 -37 76 0 13 -49 -76 0 9 -35 83 0z"/>
  <polygon class="fil0" points="1782,816 2062,1530 1533,1530 1396,1060 777,1453 0,1945 1087,0 1461,0 1466,12 1688,577 1295,714 1233,500 1056,869 1315,780 1713,642 2469,381 "/>
  <path class="fil0" d="M3663 922c-217,-31 -389,33 -389,33l-1 0 0 574 187 0 0 -435c0,0 0,0 1,-1 0,0 43,-23 116,-13 19,2 44,23 52,40 10,20 13,51 13,97l0 312 186 0 0 -338c0,-152 -39,-251 -164,-269z"/>
  <path class="fil0" d="M5897 1064c52,0 102,20 102,46l0 212c0,11 -6,28 -16,32 -17,8 -46,18 -81,17 -85,-2 -101,-44 -106,-154 -4,-103 17,-154 101,-154zm281 -382l-179 0 0 271c0,0 -81,-31 -139,-31 -147,0 -244,59 -244,298 0,98 17,166 46,216 28,47 100,95 208,92 56,-1 107,-14 129,-22l0 23 177 0 0 -848z"/>
 </g>
</svg>
