<?xml version="1.0" encoding="utf-8"?>
<!-- Generator: Adobe Illustrator 21.1.0, SVG Export Plug-In . SVG Version: 6.00 Build 0)  -->
<svg version="1.1" id="Layer_1" xmlns="http://www.w3.org/2000/svg" xmlns:xlink="http://www.w3.org/1999/xlink" x="0px" y="0px"
	 viewBox="0 0 56 56" style="enable-background:new 0 0 56 56;" xml:space="preserve">
<style type="text/css">
	.st0{fill:#FFFFFF;}
</style>
<g>
	<g>
		<g>
			<g>
				<path class="st0" d="M8.3,53.1c-1.5,0-2.7-0.5-3.6-1.4c-1-1-1.5-2.3-1.5-3.6c0-1.4,0.5-2.7,1.5-3.6L18,31.1
					c0.2-0.2,0.6-0.2,0.8,0l6.4,6.4c0.2,0.2,0.2,0.6,0,0.8L11.9,51.7C11,52.6,9.7,53.1,8.3,53.1z M18.4,32.3L5.5,45.3l0,0
					C4.7,46,4.3,47,4.3,48.1c0,1,0.4,2,1.2,2.8c0.7,0.7,1.7,1.1,2.8,1.1s2.1-0.4,2.8-1.1L24,37.9L18.4,32.3z M5,44.9L5,44.9L5,44.9z
					"/>
			</g>
			<g>
				<path class="st0" d="M35.4,24.8L35.4,24.8c-0.2,0-0.3-0.1-0.4-0.2l-3.2-3.2c-0.2-0.2-0.2-0.6,0-0.8l6.9-6.9l3.4-6.4
					c0.1-0.1,0.1-0.2,0.2-0.2l6.4-3.4c0.2-0.1,0.5-0.1,0.7,0.1l3.3,3.1c0.2,0.2,0.2,0.5,0.1,0.7l-3.5,6.6c-0.1,0.1-0.1,0.2-0.3,0.3
					l-6.4,3.3l-6.8,6.8C35.7,24.7,35.5,24.8,35.4,24.8z M33,21l2.4,2.4l6.5-6.5c0,0,0.1-0.1,0.1-0.1l6.3-3.2l3.2-6.1l-2.7-2.5
					l-5.9,3.1l-3.3,6.3c0,0.1-0.1,0.1-0.1,0.1L33,21z"/>
			</g>
			<g>
				<path class="st0" d="M43.2,53.5c-5.2,0-9.5-4-9.8-9.2l-0.1-0.6c0,0,0-0.1,0-0.1c0-1.1,0.2-2.1,0.5-3L15.9,22.7
					c-1,0.4-1.9,0.5-3,0.5c0,0-0.1,0-0.1,0l-0.7-0.1C7,22.6,3,18.3,3,13.3c0-1.5,0.3-2.9,0.9-4.2C4,8.9,4.2,8.8,4.4,8.7
					c0.2,0,0.4,0,0.5,0.2l5.8,6c0.4,0.3,0.6,0.4,0.8,0.5c0.3,0,0.5,0,0.7,0.1c0.1,0,0.2,0,0.4,0c0.5,0,1.2-0.2,1.7-0.7
					c0.6-0.7,0.8-1.7,0.5-2.6c0,0,0,0,0-0.1c-0.1-0.3-0.2-0.6-0.5-0.8L8.2,5.3C8.1,5.2,8,5,8.1,4.8c0-0.2,0.2-0.4,0.4-0.4
					c1.5-0.6,2.8-0.9,4.2-0.9c5.2,0,9.5,4,9.8,9.2l0.1,0.5c0,0,0,0.1,0,0.1c0,1.1-0.2,2.1-0.5,3l18,18c1-0.4,1.9-0.5,3-0.5
					c0,0,0.1,0,0.1,0l0.6,0.1c5.1,0.3,9,4.5,9.3,9.8c0,1.5-0.3,2.9-0.9,4.3c-0.1,0.2-0.2,0.3-0.4,0.3c-0.2,0-0.4,0-0.5-0.2l-6-6
					c-0.4-0.3-0.6-0.4-0.8-0.5c-0.3,0-0.5,0-0.7-0.1c-0.1,0-0.2,0-0.4,0c-0.5,0-1.2,0.2-1.7,0.7c-0.6,0.7-0.8,1.7-0.5,2.6
					c0,0,0,0,0,0.1c0.1,0.3,0.2,0.6,0.5,0.8l6.1,6.1c0.1,0.1,0.2,0.3,0.2,0.5c0,0.2-0.2,0.4-0.4,0.4C46,53.2,44.7,53.5,43.2,53.5z
					 M34.5,43.6l0.1,0.6c0.3,4.6,4.1,8.1,8.6,8.1c1,0,1.9-0.2,2.9-0.5l-5.4-5.4C40.3,46,40,45.5,39.9,45c-0.4-1.3-0.1-2.7,0.8-3.8
					c0.6-0.6,1.6-1.1,2.5-1.1c0.1,0,0.3,0,0.5,0c0.2,0,0.4,0.1,0.6,0.1c0,0,0.1,0,0.1,0c0.5,0.1,0.8,0.4,1.4,0.8c0,0,0,0,0,0
					l5.4,5.4c0.3-0.9,0.5-1.9,0.5-2.9c-0.2-4.6-3.7-8.3-8.2-8.6c0,0,0,0,0,0L43,34.9c-1.1,0-1.9,0.1-2.8,0.5
					c-0.2,0.1-0.5,0.1-0.7-0.1L20.9,16.8c-0.2-0.2-0.2-0.4-0.2-0.6c0.3-0.9,0.5-1.9,0.5-2.9l-0.1-0.5c0,0,0,0,0-0.1
					c-0.3-4.5-4-8.1-8.6-8.1c-1,0-1.9,0.2-2.9,0.5l5.4,5.4c0.4,0.4,0.7,0.9,0.8,1.4c0.4,1.3,0.1,2.7-0.8,3.8
					c-0.6,0.6-1.6,1.1-2.5,1.1c-0.1,0-0.3,0-0.5,0c-0.2,0-0.4-0.1-0.6-0.1c0,0-0.1,0-0.1,0c-0.5-0.1-0.8-0.4-1.4-0.8
					c0,0,0,0-0.1-0.1l-5.2-5.4c-0.3,0.9-0.5,1.9-0.5,2.9c0,4.4,3.5,8.1,8.1,8.6l0.6,0.1c1.1,0,1.9-0.1,2.8-0.5
					c0.2-0.1,0.5-0.1,0.7,0.1l18.5,18.5c0.2,0.2,0.2,0.4,0.2,0.6C34.8,41.6,34.5,42.5,34.5,43.6z"/>
			</g>
		</g>
	</g>
</g>
</svg>
