<?xml version="1.0" encoding="utf-8"?>
<!-- Generator: Adobe Illustrator 21.1.0, SVG Export Plug-In . SVG Version: 6.00 Build 0)  -->
<svg version="1.1" id="Layer_1" xmlns="http://www.w3.org/2000/svg" xmlns:xlink="http://www.w3.org/1999/xlink" x="0px" y="0px"
	 viewBox="0 0 84 84" style="enable-background:new 0 0 84 84;" xml:space="preserve">
<style type="text/css">
	.st0{fill:#040000;}
</style>
<g>
	<g>
		<g>
			<g>
				<path class="st0" d="M8.8,83.4c-2.4,0-4.6-0.8-6.1-2.4c-1.6-1.6-2.6-3.8-2.6-6.1c0-2.3,0.9-4.5,2.6-6.1L25,46.5
					c0.4-0.4,1-0.4,1.4,0l10.8,10.8c0.4,0.4,0.4,1,0,1.4L14.9,81C13.3,82.6,11.2,83.4,8.8,83.4z M25.7,48.6L4.1,70.2l0,0
					c-1.3,1.3-2,2.9-2,4.7c0,1.8,0.7,3.4,2,4.7c1.2,1.2,2.8,1.8,4.7,1.8s3.5-0.6,4.7-1.8L35.1,58L25.7,48.6z M3.4,69.5L3.4,69.5
					L3.4,69.5z"/>
			</g>
			<g>
				<path class="st0" d="M54.1,36L54.1,36c-0.3,0-0.5-0.1-0.7-0.3L48,30.3c-0.4-0.4-0.4-1,0-1.4l11.5-11.5l5.6-10.6
					c0.1-0.2,0.2-0.3,0.4-0.4l10.8-5.7c0.4-0.2,0.8-0.1,1.2,0.2L83,6c0.3,0.3,0.4,0.8,0.2,1.2l-5.9,11.1c-0.1,0.2-0.2,0.3-0.4,0.4
					l-10.6,5.5L54.8,35.7C54.6,35.9,54.4,36,54.1,36z M50.1,29.6l4,4L65,22.7c0.1-0.1,0.2-0.1,0.2-0.2l10.5-5.4L81.1,7l-4.5-4.2
					L66.7,8l-5.6,10.5c0,0.1-0.1,0.2-0.2,0.2L50.1,29.6z"/>
			</g>
			<g>
				<path class="st0" d="M67.3,84c-8.7,0-15.9-6.7-16.4-15.4l-0.1-1c0,0,0-0.1,0-0.1c0-1.8,0.4-3.4,0.8-4.9l-30-30
					c-1.7,0.6-3.2,0.8-5,0.8c0,0-0.1,0-0.1,0l-1.1-0.2C6.7,32.3,0,25.1,0,16.7c0-2.5,0.5-4.9,1.5-7.1c0.1-0.3,0.4-0.5,0.7-0.6
					c0.3-0.1,0.7,0.1,0.9,0.3l9.8,10.1c0.7,0.5,1,0.7,1.4,0.9c0.5,0,0.9,0.1,1.2,0.1c0.2,0,0.4,0.1,0.6,0.1c0.8,0,2-0.4,2.8-1.1
					c1-1.2,1.4-2.8,0.9-4.4c0,0,0-0.1,0-0.1c-0.1-0.5-0.4-0.9-0.8-1.4L8.7,3.4C8.5,3.1,8.4,2.8,8.4,2.5C8.5,2.1,8.7,1.9,9,1.7
					c2.4-1,4.6-1.5,7.1-1.5c8.6,0,15.8,6.7,16.4,15.3l0.1,0.9c0,0.1,0,0.1,0,0.2c0,1.8-0.4,3.4-0.8,4.9l30.2,30.2
					c1.7-0.6,3.2-0.8,5-0.8c0,0,0.1,0,0.1,0l1.1,0.2c8.5,0.5,15.1,7.5,15.5,16.3c0,2.5-0.5,4.9-1.5,7.1c-0.1,0.3-0.4,0.5-0.7,0.6
					c-0.3,0.1-0.7,0-0.9-0.3L70.4,64.7c-0.7-0.5-1-0.7-1.4-0.9c-0.5,0-0.8-0.1-1.2-0.1c-0.2,0-0.4-0.1-0.6-0.1c-0.8,0-2,0.4-2.8,1.1
					c-1,1.2-1.4,2.8-0.9,4.4c0,0,0,0.1,0,0.1c0.1,0.5,0.4,0.9,0.8,1.4l10.1,10.1c0.2,0.2,0.3,0.6,0.3,0.9c-0.1,0.3-0.3,0.6-0.6,0.7
					C71.9,83.5,69.7,84,67.3,84z M52.7,67.4l0.1,1C53.3,76.1,59.6,82,67.3,82c1.7,0,3.2-0.3,4.9-0.8l-9.1-9.1
					c-0.7-0.7-1.2-1.5-1.4-2.3c-0.7-2.2-0.2-4.6,1.3-6.3c1.1-1.1,2.7-1.8,4.2-1.8c0.2,0,0.5,0,0.8,0.1c0.3,0,0.7,0.1,1.1,0.1
					c0.1,0,0.2,0,0.2,0c0.8,0.2,1.4,0.6,2.3,1.3c0,0,0.1,0,0.1,0.1l9.1,9.1c0.5-1.5,0.8-3.2,0.8-4.9c-0.3-7.7-6.2-13.9-13.6-14.4
					c0,0-0.1,0-0.1,0l-1-0.1c-1.8,0-3.2,0.2-4.7,0.9c-0.4,0.2-0.8,0.1-1.1-0.2L29.9,22.5c-0.3-0.3-0.4-0.6-0.3-1
					c0.5-1.5,0.9-3.1,0.9-4.9l-0.1-0.9c0,0,0-0.1,0-0.1C30,8.1,23.7,2.2,16.1,2.2c-1.7,0-3.2,0.3-4.9,0.8l9.1,9.1
					c0.7,0.7,1.2,1.5,1.4,2.3c0.7,2.2,0.2,4.6-1.3,6.3c-1.1,1.1-2.7,1.8-4.2,1.8c-0.2,0-0.5,0-0.8-0.1c-0.3,0-0.7-0.1-1.1-0.1
					c-0.1,0-0.2,0-0.2,0c-0.8-0.2-1.4-0.6-2.3-1.3c0,0-0.1-0.1-0.1-0.1l-8.8-9C2.3,13.4,2,15.1,2,16.7c0,7.3,5.9,13.6,13.5,14.4
					l1.1,0.2c1.8,0,3.2-0.2,4.7-0.9c0.4-0.2,0.8-0.1,1.1,0.2l30.9,30.9c0.3,0.3,0.4,0.6,0.3,1C53.2,64,52.7,65.7,52.7,67.4z"/>
			</g>
		</g>
	</g>
</g>
</svg>
