<?xml version="1.0" encoding="utf-8"?>
<!-- Generator: Adobe Illustrator 21.1.0, SVG Export Plug-In . SVG Version: 6.00 Build 0)  -->
<svg version="1.1" id="Layer_1" xmlns="http://www.w3.org/2000/svg" xmlns:xlink="http://www.w3.org/1999/xlink" x="0px" y="0px"
	 viewBox="0 0 84 84" style="enable-background:new 0 0 84 84;" xml:space="preserve">
<style type="text/css">
	.st0{fill:#FFFFFF;}
</style>
<g>
	<g>
		<path class="st0" d="M60.2,72.5H2.7c-1.4,0-2.6-1.2-2.6-2.6v-57c0-1.4,1.2-2.6,2.6-2.6h57.5c1.4,0,2.6,1.2,2.6,2.6v7.6h-2.4v-7.6
			c0-0.1-0.1-0.2-0.2-0.2H2.7c-0.1,0-0.2,0.1-0.2,0.2v57c0,0.1,0.1,0.2,0.2,0.2h57.5c0.1,0,0.2-0.1,0.2-0.2V54.2h2.4v15.8
			C62.8,71.4,61.6,72.5,60.2,72.5z"/>
	</g>
	<g>
		<g id="create_2_">
			<g>
				<path class="st0" d="M51.3,58.6H41.1V48.4l25.9-26.2l10.2,10.2L51.3,58.6z M43.5,56.2h6.9L74,32.4l-6.9-6.9L43.5,49.3V56.2z
					 M78.4,31.9L68.1,21.6l4.9-4.9c1.4-1.3,3.5-1.3,4.8,0l5.2,5.2c0.7,0.7,1,1.5,1,2.4c0,0.9-0.4,1.7-1,2.4L78.4,31.9z M71.4,21.6
					l6.8,6.8l3-3.4c0.2-0.2,0.3-0.5,0.3-0.7s-0.1-0.5-0.3-0.7l-5.2-5.2c-0.4-0.4-1-0.4-1.5,0L71.4,21.6z"/>
			</g>
		</g>
	</g>
	<g>
		<g>
			<line class="st0" x1="14.6" y1="24.9" x2="48.3" y2="24.9"/>
			<rect x="14.6" y="23.7" class="st0" width="33.7" height="2.4"/>
		</g>
		<g>
			<line class="st0" x1="14.6" y1="33" x2="48.3" y2="33"/>
			<rect x="14.6" y="31.8" class="st0" width="33.7" height="2.4"/>
		</g>
		<g>
			<line class="st0" x1="14.6" y1="41.1" x2="41.2" y2="41.1"/>
			<rect x="14.6" y="40" class="st0" width="26.6" height="2.4"/>
		</g>
		<g>
			<line class="st0" x1="14.6" y1="49.3" x2="32" y2="49.3"/>
			<rect x="14.6" y="48.1" class="st0" width="17.4" height="2.4"/>
		</g>
		<g>
			<line class="st0" x1="14.6" y1="57.4" x2="32" y2="57.4"/>
			<rect x="14.6" y="56.2" class="st0" width="17.4" height="2.4"/>
		</g>
	</g>
</g>
</svg>
