<?xml version="1.0" encoding="utf-8"?>
<!-- Generator: Adobe Illustrator 19.0.0, SVG Export Plug-In . SVG Version: 6.00 Build 0)  -->
<svg version="1.1" id="Layer_1" xmlns="http://www.w3.org/2000/svg" xmlns:xlink="http://www.w3.org/1999/xlink" x="0px" y="0px"
	 viewBox="-449 251 60 60" style="enable-background:new -449 251 60 60;" xml:space="preserve">
<g>
	<path style="fill:#040000;" d="M-396.4694214,281.3399963h-10.4545288c-0.1313171,0-0.2384033,0.1066284-0.2384033,0.2384033
		v5.2207642c0,0.1317749,0.1070862,0.2384033,0.2384033,0.2384033h10.4545288c0.1313171,0,0.2384033-0.1066284,0.2384033-0.2384033
		v-5.2207642C-396.2310181,281.4466248-396.3381042,281.3399963-396.4694214,281.3399963z M-396.7078247,286.5607605h-9.9777222
		v-4.7439575h9.9777222V286.5607605z"/>
	<path style="fill:#040000;" d="M-393.5209961,287.9655762c-0.090332-0.1061707-0.2235107-0.1676331-0.3631897-0.1676331h-0.7329407
		v-7.6550903c0-0.2635498-0.2132568-0.4768066-0.4768066-0.4768066h-13.1244812
		c-0.2635498,0-0.4768372,0.2132568-0.4768372,0.4768066v7.6550903h-0.8139343c-0.139679,0-0.2728577,0.0614624-0.3631897,0.1676331
		c-0.090332,0.1066284-0.1294556,0.2472534-0.1070862,0.3850708c0.1750793,1.0849609,0.7906494,1.8141479,1.5310059,1.8141479
		h13.50354c0.7403564,0,1.3559265-0.729187,1.5310059-1.8141479
		C-393.3915405,288.2128296-393.4306641,288.0722046-393.5209961,287.9655762z M-407.7416077,280.6196594h12.1708679v7.1382446
		h-12.1708679V280.6196594z M-394.9449158,289.2111511h-13.50354c-0.1192017,0-0.2951965-0.1573792-0.4311829-0.4595642h14.3659058
		C-394.6497192,289.053772-394.8257141,289.2111511-394.9449158,289.2111511z"/>
	<path style="fill:#040000;" d="M-432.9857483,281.7628174h8.1812744c2.1968689,0,3.9849243-1.7875977,3.9849243-3.9849548
		c0-1.4630432-0.7962341-2.7877808-2.0618286-3.4862366c-0.2328186-1.4136658-1.4677124-2.4981384-2.941925-2.4981384
		c-0.3874207,0-0.7655029,0.0758972-1.1203308,0.2230225c-0.7822571-1.068634-2.0162048-1.7079468-3.3665466-1.7079468
		c-2.1782837,0-3.9737854,1.6665039-4.1795959,3.7912292c-1.484436,0.6053162-2.4809265,2.0478821-2.4809265,3.6780701
		C-436.9707031,279.9752197-435.1826477,281.7628174-432.9857483,281.7628174z M-433.6069031,275.3118286
		c0.3296509-0.0838013,0.5550232-0.3887939,0.538269-0.7286987c-0.0018616-0.038208-0.0065308-0.0754395-0.0102539-0.0754395
		c0-1.526825,1.2423401-2.7687073,2.7687073-2.7687073c1.0551147,0,2.0031738,0.5964966,2.4753113,1.5566406
		c0.0940857,0.1923218,0.2700806,0.3320007,0.4777527,0.3808899c0.2086182,0.0507507,0.4274597,0.0028076,0.5979004-0.1280518
		c0.2784424-0.2123108,0.601593-0.3245544,0.9359131-0.3245544c0.8483887,0,1.5440674,0.6910095,1.5505981,1.5403442
		c0.0018616,0.286377,0.1750793,0.544342,0.4404907,0.6546936c0.9610596,0.4004517,1.5822144,1.3265991,1.5822144,2.3589172
		c0,1.4085693-1.1463928,2.5545044-2.5544739,2.5545044h-8.1812744c-1.4090271,0-2.5545044-1.1459351-2.5545044-2.5545044
		C-435.5402527,276.6151733-434.7449341,275.6010132-433.6069031,275.3118286z"/>
	<path style="fill:#040000;" d="M-416.9582214,292.2763367c-0.2570496-0.1639099-0.5073242-0.3375854-0.7496948-0.5210876
		c-0.3337402-0.2546692-0.8057861-0.1855164-1.0560608,0.1452026c-0.2512207,0.3322449-0.1864929,0.8047485,0.1452637,1.0560303
		c0.2757874,0.2090149,0.5594788,0.40625,0.8518982,0.5917664c0.1254883,0.0799561,0.2649536,0.1177368,0.4032288,0.1177368
		c0.2493591,0,0.4937134-0.1236267,0.6370239-0.3493347C-416.5028381,292.9653015-416.6069031,292.4996338-416.9582214,292.2763367z
		"/>
	<path style="fill:#040000;" d="M-412.7166138,293.8490295c-0.3032532-0.0441589-0.6005554-0.1000977-0.8940125-0.1687927
		c-0.4042969-0.094696-0.8106995,0.1560669-0.9057922,0.5613403c-0.0952148,0.4053345,0.1569214,0.8111267,0.5622559,0.9058533
		c0.3346863,0.0784912,0.6751709,0.14328,1.0197449,0.1933289c0.037262,0.0053711,0.0735779,0.0078125,0.1098938,0.0078125
		c0.367981,0,0.6898499-0.2698364,0.7447815-0.6452637C-412.0198975,294.291626-412.3053284,293.9088745-412.7166138,293.8490295z"
		/>
	<path style="fill:#040000;" d="M-408.492218,272.334198c0.2968445,0.0717163,0.5892639,0.1557617,0.8760986,0.2518005
		c0.1089478,0.0362549,0.2187195,0.0462036,0.3250122,0.0338745c0.2817078-0.0327759,0.5331726-0.2235718,0.629303-0.5104065
		c0.1308594-0.3946228-0.0816956-0.8213806-0.4764404-0.9533386c-0.3279419-0.1090698-0.6611023-0.2051697-0.9986877-0.2869568
		c-0.4055786-0.0970764-0.812439,0.1502991-0.910553,0.5553894
		C-409.1446838,271.8291626-408.896759,272.2365417-408.492218,272.334198z"/>
	<path style="fill:#040000;" d="M-403.7115173,274.8795471c0.1678772,0.1529236,0.3856812,0.2160034,0.5942688,0.1917419
		c0.1744995-0.0203247,0.3429565-0.1011658,0.4699707-0.2409058c0.280304-0.3077393,0.2585449-0.7844238-0.0497131-1.0646973
		c-0.2554016-0.2336426-0.5204773-0.4562073-0.7939148-0.6669617c-0.3288574-0.2542419-0.8009033-0.1924438-1.0571289,0.1367798
		c-0.2539978,0.3293762-0.1929932,0.802948,0.1369019,1.0570679
		C-404.170166,274.4783936-403.9380493,274.6741943-403.7115173,274.8795471z"/>
	<path style="fill:#040000;" d="M-408.1993408,293.5664063c-0.2904358,0.0809631-0.5857544,0.1501465-0.8870239,0.20755
		c-0.4083862,0.0780029-0.6772766,0.4725647-0.5986938,0.8818054c0.0686646,0.3611145,0.3847351,0.6123657,0.7389526,0.6123657
		c0.0471497,0,0.0941772-0.004425,0.1423645-0.0132751c0.3424988-0.0652466,0.6790161-0.1442261,1.0106812-0.2369995
		c0.4004517-0.1118774,0.6351318-0.5274658,0.5231323-0.9283752
		C-407.3817749,293.6885681-407.7900391,293.4520874-408.1993408,293.5664063z"/>
	<path style="fill:#040000;" d="M-404.1903076,291.4661865c-0.2336121,0.1938171-0.4759827,0.3778687-0.7262878,0.5520935
		c-0.3415222,0.237915-0.4258118,0.7075195-0.1874084,1.0490723c0.1462097,0.2105103,0.3808899,0.3228455,0.6192932,0.3228455
		c0.1481934,0,0.2983704-0.0436401,0.4298096-0.135376c0.2836609-0.1977844,0.5594482-0.4073181,0.8263855-0.6276245
		c0.3200073-0.2649841,0.3650513-0.7404785,0.1000977-1.0608826
		C-403.3944092,291.2449036-403.8693542,291.2007141-404.1903076,291.4661865z"/>
	<path style="fill:#040000;" d="M-412.2597046,270.5814819l-0.2371216,0.0255432
		c-0.2363281,0.0274658-0.4694824,0.0637817-0.7011414,0.1039429v-3.3443298c0-0.3948364-0.3203735-0.71521-0.71521-0.71521
		h-29.9638672c-0.3948669,0-0.71521,0.3203735-0.71521,0.71521v17.7445679c0,0.3948669,0.320343,0.7152405,0.71521,0.7152405
		h14.2662354v2.6420288h-3.1290894c-0.3948669,0-0.71521,0.320343-0.71521,0.71521s0.320343,0.7152405,0.71521,0.7152405h7.6895752
		c0.3948364,0,0.71521-0.3203735,0.71521-0.7152405s-0.3203735-0.71521-0.71521-0.71521h-3.1300354v-2.6420288h14.2671814
		c0.3948364,0,0.71521-0.3203735,0.71521-0.7152405v-12.9064636c0.0440063,0.0027466,0.0861511,0.0151367,0.1313171,0.0099182
		c0.01651-0.0019836,0.032135-0.0042725,0.0474854-0.0070496c0.2293396-0.0415039,0.4614563-0.0758972,0.6963806-0.1032104
		l0.2078857-0.0222168c0.4126892-0.0455322,0.7182617-0.4085388,0.6779785-0.8227844
		S-411.84552,270.5416565-412.2597046,270.5814819z M-414.628418,284.3959961h-28.5334167v-16.3141174h28.5334167V284.3959961z"/>
	<path style="fill:#040000;" d="M-418.7846985,290.1652527c0.3389893,0.0647278,0.6611938-0.1578369,0.7236023-0.4945068
		c0.063324-0.3366699-0.1583252-0.6602783-0.4945068-0.7236023l-2.7193298-0.511261
		c-0.1890564-0.0358582-0.384613,0.0190735-0.5280457,0.1476135c-0.1443481,0.1285095-0.2197876,0.3170776-0.2048645,0.5089417
		l0.2151184,2.7882385c0.0251465,0.32547,0.2970886,0.5722656,0.6174316,0.5722656
		c0.0158386,0,0.0325928-0.0004578,0.0484314-0.0018616c0.3417664-0.0260925,0.5969543-0.3240967,0.5708618-0.6654053
		l-0.153656-1.9822083L-418.7846985,290.1652527z"/>
	<path style="fill:#040000;" d="M-402.8961792,276.3479004c-0.3305969-0.0787048-0.6677246,0.1247864-0.7478027,0.4577026
		c-0.0801086,0.3329468,0.1247864,0.6672668,0.4572449,0.747345l2.6895447,0.6467896
		c0.0484314,0.0116272,0.0968323,0.0172119,0.1452637,0.0172119c0.140625,0,0.2784729-0.0479431,0.3901978-0.1378174
		c0.1499634-0.121521,0.2346802-0.3059082,0.2290955-0.49823l-0.0744934-2.7952271
		c-0.0093079-0.3427124-0.3296814-0.6132507-0.6360474-0.6034851c-0.3417969,0.0093384-0.6118469,0.2943115-0.6025391,0.6360779
		l0.0530701,1.9873352L-402.8961792,276.3479004z"/>
</g>
</svg>
