<?xml version="1.0" encoding="utf-8"?>
<!-- Generator: Adobe Illustrator 19.2.1, SVG Export Plug-In . SVG Version: 6.00 Build 0)  -->
<svg version="1.1" id="Layer_1" xmlns="http://www.w3.org/2000/svg" xmlns:xlink="http://www.w3.org/1999/xlink" x="0px" y="0px"
	 viewBox="0 0 60 60" style="enable-background:new 0 0 60 60;" xml:space="preserve">
<g>
	<path d="M20.4838867,23.1879883L17.7338867,34.5h-2.046875l-1.828125-8.7182617L12.0620117,34.5h-2.046875l-2.734375-11.3120117
		h1.9375l1.84375,9.1245117l1.8125-9.1088867h2.015625l1.84375,9.1088867l1.828125-9.1245117H20.4838867z"/>
	<path d="M29.9057617,37.015625L27.7495117,34.5c-0.46875,0.1357422-1,0.203125-1.59375,0.203125
		c-1.5419922,0-2.71875-0.4921875-3.53125-1.4765625s-1.21875-2.4453125-1.21875-4.3823242
		c0-1.9375,0.40625-3.3984375,1.21875-4.3828125s1.9892578-1.4765625,3.53125-1.4765625
		c1.5415039,0,2.7211914,0.4921875,3.5390625,1.4765625s1.2270508,2.4453125,1.2270508,4.3828125
		c0,2.2924805-0.5732422,3.9213867-1.7192383,4.8901367l1.9223633,2.0625L29.9057617,37.015625z M26.1557617,33.03125
		c1.8852539,0,2.828125-1.3945312,2.828125-4.1870117c0-2.7915039-0.9428711-4.1875-2.828125-4.1875
		c-1.875,0-2.8125,1.3959961-2.8125,4.1875C23.3432617,31.6367188,24.2807617,33.03125,26.1557617,33.03125z"/>
	<path d="M41.421875,23.1879883V34.5h-1.875v-4.9057617H34.9375V34.5h-1.875V23.1879883h1.875v4.734375h4.609375v-4.734375
		H41.421875z"/>
	<path d="M51.40625,24.6098633c0.875,0.9482422,1.3125,2.3544922,1.3125,4.21875
		c0,1.8745117-0.4404297,3.2885742-1.3203125,4.2416992C50.5175781,34.0234375,49.2392578,34.5,47.5625,34.5h-3.515625V23.1879883
		h3.53125C49.2548828,23.1879883,50.53125,23.6621094,51.40625,24.6098633z M49.96875,31.8203125
		c0.5410156-0.671875,0.8125-1.6679688,0.8125-2.9916992c0-2.6455078-1.0839844-3.96875-3.25-3.96875h-1.609375v7.9682617h1.625
		C48.6191406,32.828125,49.4267578,32.4921875,49.96875,31.8203125z"/>
</g>
</svg>
