<?xml version="1.0" encoding="utf-8"?>
<!-- Generator: Adobe Illustrator 19.0.0, SVG Export Plug-In . SVG Version: 6.00 Build 0)  -->
<svg version="1.1" id="Layer_1" xmlns="http://www.w3.org/2000/svg" xmlns:xlink="http://www.w3.org/1999/xlink" x="0px" y="0px"
	 viewBox="-449 251 60 60" style="enable-background:new -449 251 60 60;" xml:space="preserve">
<g>
	<path style="fill:#040000;" d="M-401.1221924,299.5118408v-21.2445984l-9.013031,1.3460693v-2.2566223l5.3259888-0.980072
		v-16.7376709l-18.071167,7.2312317v8.4106445l-14.0462036,3.0857239v13.7067261l8.8959045,0.4682312v3.1701355
		l11.2953491,1.5952148v2.6762695l-4.8644104-0.7723999v1.2825317l11.1040649,1.7631531v-1.2825317l-5.0240784-0.79776v-2.6975708
		L-401.1221924,299.5118408z M-421.664856,267.6932068l15.6400452-6.2586365v13.9298706l-15.6400452,2.8782654V267.6932068z
		 M-435.7110596,279.3439026l12.830658-2.818634v3.1767273l11.5296021-2.1216431v14.6219177l-24.36026-1.2820435V279.3439026z
		 M-426.815155,292.6055298l16.6799316,0.8779602v-12.6413574l7.7974548-1.1646423v18.4351807l-24.4773865-3.4567261V292.6055298z"
		/>
	<path style="fill:#040000;" d="M-416.7353516,274.8041687l5.572113-4.0922546l-5.572113-2.378479V274.8041687z
		 M-415.5197754,270.1741943l1.9190979,0.819458l-1.9190979,1.4094543V270.1741943z"/>
	<path style="fill:#040000;" d="M-434.1290894,289.4917908l20.7341614,0.2801514v-4.6375122l-20.7341614,0.6422119V289.4917908z
		 M-427.4094849,288.3670654v-1.58255l5.1028137-0.1581116v1.8095398L-427.4094849,288.3670654z M-414.6104736,288.5397339
		l-6.4806213-0.0874329v-1.8635559l6.4806213-0.2007446V288.5397339z M-432.9135132,286.9550171l4.2884827-0.1328735v1.5285645
		l-4.2884827-0.0578613V286.9550171z"/>
</g>
</svg>
