<?xml version="1.0" encoding="utf-8"?>
<!-- Generator: Adobe Illustrator 19.2.1, SVG Export Plug-In . SVG Version: 6.00 Build 0)  -->
<svg version="1.1" id="Layer_1" xmlns="http://www.w3.org/2000/svg" xmlns:xlink="http://www.w3.org/1999/xlink" x="0px" y="0px"
	 viewBox="0 0 60 60" style="enable-background:new 0 0 60 60;" xml:space="preserve">
<style type="text/css">
	.st0{fill:none;stroke:#000000;stroke-linecap:round;stroke-linejoin:round;stroke-miterlimit:10;}
	.st1{fill:#D1D1D1;}
	.st2{fill:#FFFFFF;}
	.st3{fill:none;stroke:#000000;stroke-width:1.5;stroke-linecap:round;stroke-linejoin:round;stroke-miterlimit:10;}
	.st4{fill:none;stroke:#000000;stroke-width:1.5;stroke-linejoin:round;stroke-miterlimit:10;}
	.st5{fill:#6FA7C6;}
	.st6{fill:#FF6800;}
	.st7{fill:#00C3FD;}
	.st8{fill:#0160C2;}
	.st9{fill:#2ACA00;}
	.st10{fill:#FF871F;}
	.st11{fill:#026232;}
	.st12{fill:#EC6519;}
	.st13{fill:#0DB5EC;}
	.st14{fill:#015DAE;}
	.st15{fill:#6FB92C;}
	.st16{fill:#F57E16;}
	.st17{fill:#EF752A;}
	.st18{fill:#2C6737;}
	.st19{fill:#231917;}
	.st20{fill:#FFFFFF;stroke:#000000;stroke-width:3;stroke-linecap:round;stroke-linejoin:round;stroke-miterlimit:10;}
	.st21{fill:none;stroke:#000000;stroke-width:3;stroke-linecap:round;stroke-linejoin:round;stroke-miterlimit:10;}
	.st22{fill:#F23D3D;}
	.st23{fill:none;stroke:#282828;stroke-width:3;stroke-linecap:round;stroke-linejoin:round;stroke-miterlimit:10;}
	.st24{fill:none;stroke:#282828;stroke-width:3;stroke-linejoin:round;stroke-miterlimit:10;}
</style>
<g>
	<path d="M58,12.816H2c-0.414,0-0.75,0.336-0.75,0.75v26.187c0,0.414,0.336,0.75,0.75,0.75h25.604v5.143H16.873
		c-0.414,0-0.75,0.336-0.75,0.75s0.336,0.75,0.75,0.75h26.186c0.414,0,0.75-0.336,0.75-0.75s-0.336-0.75-0.75-0.75H32.328v-5.143H58
		c0.414,0,0.75-0.336,0.75-0.75V13.566C58.75,13.152,58.414,12.816,58,12.816z M30.828,45.646h-1.723v-5.143h1.723V45.646z
		 M57.25,39.003H2.75V14.316h54.5V39.003z"/>
	<path d="M9.375,29.852c0.146,0.146,0.338,0.22,0.53,0.22s0.384-0.073,0.53-0.22c0.293-0.293,0.293-0.768,0-1.061L9.055,27.41
		h41.609l-1.381,1.381c-0.293,0.293-0.293,0.768,0,1.061c0.146,0.146,0.338,0.22,0.53,0.22s0.384-0.073,0.53-0.22l2.615-2.615
		c0.172-0.138,0.289-0.34,0.289-0.577c0-0.004-0.002-0.007-0.002-0.011c0.003-0.196-0.068-0.392-0.218-0.542l-2.684-2.684
		c-0.293-0.293-0.768-0.293-1.061,0s-0.293,0.768,0,1.061l1.426,1.426H9.01l1.426-1.426c0.293-0.293,0.293-0.768,0-1.061
		s-0.768-0.293-1.061,0l-2.684,2.684c-0.293,0.293-0.293,0.768,0,1.061L9.375,29.852z"/>
</g>
</svg>
