<?xml version="1.0" encoding="utf-8"?>
<!-- Generator: Adobe Illustrator 19.0.0, SVG Export Plug-In . SVG Version: 6.00 Build 0)  -->
<svg version="1.1" id="Layer_1" xmlns="http://www.w3.org/2000/svg" xmlns:xlink="http://www.w3.org/1999/xlink" x="0px" y="0px"
	 viewBox="0 0 60 60" style="enable-background:new 0 0 60 60;" xml:space="preserve">
<g>
	<g>
		<g>
			<g>
				<path d="M41.0712509,32.0745544h-4.0976105l-0.8226089,4.3392487h-1.9930458l1.9956398-10.5227127h1.9904518
					l-0.8174171,4.3098068h4.1002045l0.8174171-4.3098068h1.9957809l-1.9983902,10.5227127h-1.9918098L41.0712509,32.0745544z"/>
				<path d="M44.4230804,34.640892l5.9129677-4.9296017H45.458168l0.3290443-1.7316685h7.4547844l-0.336998,1.774271
					l-5.9129677,4.9294758h5.066246l-0.3263092,1.7304344h-7.6458855L44.4230804,34.640892z"/>
			</g>
		</g>
		<g>
			<g>
				<path d="M3,43.7714615l0.8530903-4.7767982h1.9559283c0.3622632,0,0.6767907,0.0410995,0.9435124,0.1232872
					c0.2653465,0.0797348,0.4830832,0.1953506,0.6554828,0.3397369c0.1672654,0.1460266,0.2839193,0.3186378,0.3502841,0.5227547
					c0.0690436,0.2019119,0.0796628,0.4301414,0.0358963,0.6794548c-0.0518599,0.28685-0.1871285,0.5548058-0.4073482,0.8096046
					c-0.220346,0.2493248-0.5095954,0.4416466-0.8678894,0.5838432l0.9129601,1.7181168H6.1327901l-0.7138519-1.4581146H4.3959174
					l-0.2600722,1.4581146H3z M5.2637367,41.498539c0.2334895,0,0.4325418-0.0265694,0.5997372-0.0687637
					c0.1671953-0.0465736,0.3065038-0.1117859,0.417953-0.1898651c0.1128101-0.0835609,0.2003427-0.1764374,0.2588377-0.2813797
					c0.0610342-0.1049271,0.1008167-0.2164307,0.1247339-0.3331566c0.0423913-0.242733-0.0239172-0.4391747-0.1938481-0.5824699
					c-0.1724696-0.1432915-0.4750032-0.2137108-0.9115853-0.2137108H4.8403687l-0.298564,1.6693459H5.2637367z"/>
				<path d="M8.7349577,38.9946632h3.6146526l-0.1460276,0.8531723H9.7182655L9.517909,40.9467468h2.4853172l-0.1499262,0.8476906
					H9.3692875l-0.2003431,1.1266022h2.4826384l-0.1499424,0.8504219H7.8804221L8.7349577,38.9946632z"/>
				<path d="M12.9864645,38.9946632h3.455327l-0.1538258,0.8531723h-2.3169012l-0.1964293,1.0989113h2.3142776l-0.1512318,0.8476906
					h-2.314292l-0.3528786,1.9770241h-1.1358452L12.9864645,38.9946632z"/>
				<path d="M16.2401447,43.7714615l0.8491917-4.7767982h1.9559288c0.3636379,0,0.6741238,0.0410995,0.9474812,0.1232872
					c0.262682,0.0797348,0.4804173,0.1953506,0.6515121,0.3397369c0.1685715,0.1460266,0.2880154,0.3186378,0.3517303,0.5227547
					c0.068903,0.2019119,0.0743046,0.4301414,0.0344505,0.6794548c-0.0518589,0.28685-0.1884327,0.5548058-0.406044,0.8096046
					c-0.2229385,0.2493248-0.5121899,0.4416466-0.8704834,0.5838432l0.9128895,1.7181168h-1.2964611l-0.7151566-1.4581146
					h-1.0191212l-0.2600727,1.4581146H16.2401447z M18.4985371,41.498539c0.2362404,0,0.4352913-0.0265694,0.6025429-0.0687637
					c0.1671391-0.0465736,0.3078232-0.1117859,0.4192581-0.1898651c0.1088409-0.0835609,0.1976776-0.1764374,0.2574768-0.2813797
					c0.0610199-0.1049271,0.1008167-0.2164307,0.1221237-0.3331566c0.0423927-0.242733-0.021307-0.4391747-0.1938477-0.5824699
					c-0.1724682-0.1432915-0.472393-0.2137108-0.9102802-0.2137108h-0.7164478l-0.2998676,1.6693459H18.4985371z"/>
				<path d="M21.972578,38.9946632h3.6145687l-0.1486225,0.8531723h-2.4814167l-0.1990395,1.0989113h2.4840832l-0.1513023,0.8476906
					h-2.484026l-0.2016468,1.1266022h2.4853172l-0.152607,0.8504219H21.118042L21.972578,38.9946632z"/>
				<path d="M27.4263649,43.7783089c-0.550766,0-1.0005627-0.0824699-1.3509865-0.2468567
					c-0.3475342-0.1619225-0.642128-0.3649292-0.8757038-0.6104126l1.143856-0.6104279
					c0.1194592,0.1991768,0.2866535,0.3517838,0.4936466,0.4591789c0.2095871,0.1063156,0.4564438,0.1567192,0.735075,0.1567192
					c0.2999382,0,0.5414543-0.063839,0.7217922-0.1887703c0.1805496-0.1271172,0.2866535-0.2704124,0.3172626-0.4295959
					c0.0171986-0.0983467-0.0067062-0.1832848-0.0678101-0.2495956c-0.05966-0.0676689-0.1432209-0.1260223-0.2507572-0.1764374
					c-0.1074657-0.0476685-0.2374592-0.0917854-0.3834324-0.1315117c-0.1458874-0.0345192-0.2945232-0.0742455-0.4512405-0.1087685
					c-0.1963024-0.0531502-0.3926754-0.1087685-0.5891171-0.1671257c-0.196373-0.0610886-0.3675385-0.1405411-0.5147285-0.238903
					c-0.1460285-0.1008301-0.2575359-0.2202759-0.3331566-0.3715096c-0.0782204-0.1443863-0.0969181-0.3290443-0.0571213-0.5468674
					c0.0345211-0.1868477,0.1141701-0.3621902,0.2429447-0.5227394c0.1299381-0.1589165,0.2958279-0.2997398,0.4963112-0.421936
					c0.2029514-0.118084,0.4338455-0.2147903,0.6965828-0.2824593c0.2600727-0.0663109,0.5347328-0.0994568,0.8240528-0.0994568
					c0.2440529,0,0.4643993,0.0183487,0.6541233,0.0515099c0.1937771,0.035881,0.3662472,0.083828,0.5176201,0.1432915
					c0.1538258,0.0597153,0.2891788,0.1339645,0.4113026,0.2191811c0.1233597,0.0849228,0.2362404,0.1805496,0.3422604,0.2783508
					l-1.0389118,0.5707016c-0.205759-0.3156242-0.5480328-0.4723396-1.0178318-0.4723396
					c-0.281311,0-0.5015163,0.0517769-0.6634369,0.1539803c-0.1645164,0.1008186-0.2587681,0.2254829-0.2865715,0.3742447
					c-0.015892,0.0915146,0.0039005,0.1726112,0.0610199,0.2348061c0.0556202,0.0624657,0.1366444,0.1180878,0.240139,0.1684875
					c0.1075363,0.0476799,0.2295341,0.0915146,0.3728828,0.1298676c0.1432934,0.0375366,0.2972755,0.0769844,0.4564457,0.1194611
					c0.1950111,0.0531502,0.3967991,0.1115036,0.5917969,0.1778145c0.1964436,0.0638237,0.3728828,0.1487617,0.520216,0.2520485
					c0.1512299,0.1063004,0.2693863,0.2309647,0.3476734,0.3821945c0.0795937,0.148777,0.0995274,0.3383598,0.0583553,0.5627594
					c-0.0331478,0.1819115-0.1114349,0.3608208-0.2361698,0.5306931c-0.1261635,0.1753464-0.2880154,0.3290482-0.4936314,0.4619179
					c-0.2003422,0.133976-0.4405518,0.2413712-0.7166576,0.3263092
					C28.0658989,43.7410507,27.7621155,43.7783089,27.4263649,43.7783089z"/>
				<path d="M33.9071579,41.8037529h-2.3407345l-0.354311,1.9677086H30.076128l0.8533707-4.7767982h1.1358433l-0.3476734,1.9559288
					h2.3407192l0.3476753-1.9559288h1.1359177l-0.853302,4.7767982H33.553997L33.9071579,41.8037529z"/>
				<path d="M37.5987244,43.7714615l0.8517838-4.7767982h1.9533195c0.3635712,0,0.6793327,0.0410995,0.9448166,0.1232872
					c0.2679558,0.0797348,0.4882317,0.1953506,0.6553612,0.3397369c0.1699982,0.1460266,0.2853317,0.3186378,0.3517838,0.5227547
					c0.0689049,0.2019119,0.0808258,0.4301414,0.0357552,0.6794548c-0.050415,0.28685-0.18713,0.5548058-0.408638,0.8096046
					c-0.2176819,0.2493248-0.5095978,0.4416466-0.8678207,0.5838432l0.9128914,1.7181168h-1.2951012l-0.7178078-1.4581146
					h-1.0204391l-0.260128,1.4581146H37.5987244z M39.8597107,41.498539c0.2335739,0,0.4339867-0.0265694,0.5998764-0.0687637
					c0.1671257-0.0465736,0.3078117-0.1117859,0.4191895-0.1898651c0.1115036-0.0835609,0.1990395-0.1764374,0.2601433-0.2813797
					c0.0584946-0.1049271,0.0982208-0.2164307,0.1194458-0.3331566c0.0476799-0.242733-0.021225-0.4391747-0.1924591-0.5824699
					c-0.1712379-0.1432915-0.4723396-0.2137108-0.9115295-0.2137108h-0.7152138l-0.2998695,1.6693459H39.8597107z"/>
				<path d="M45.2776146,38.9946632h1.1452179l1.3216667,4.7767982h-1.1875496l-0.224247-0.8504219h-2.3673019l-0.5228806,0.8504219
					h-1.1916733L45.2776146,38.9946632z M44.5040359,42.0717087h1.6029091l-0.480278-1.8123589L44.5040359,42.0717087z"/>
				<path d="M49.3342514,39.8478355h-1.6296158l0.1512451-0.8531723h4.4001999l-0.1486244,0.8531723h-1.6374283
					l-0.7033043,3.9236259H48.628212L49.3342514,39.8478355z"/>
				<path d="M52.8292503,38.9946632h3.6199112l-0.1538239,0.8531723h-2.4814186l-0.1990395,1.0989113h2.4814034
					l-0.1460266,0.8476906h-2.4840126l-0.2016487,1.1266022h2.4812775l-0.1512451,0.8504219h-3.6197853L52.8292503,38.9946632z"/>
			</g>
		</g>
		<g>
			<g>
				<g>
					<polygon points="49.8024788,20.3749771 33.7624931,18.6619377 28.9470024,20.0976372 45.7911835,22.6772766 					"/>
				</g>
				<g>
					<polygon points="13.6645603,16.2216911 51.4320984,19.4288006 57,16.2216911 					"/>
				</g>
			</g>
		</g>
	</g>
	<g>
		<polygon points="21.6169491,18.6619377 10.2184772,18.6619377 9.5816088,22.2765217 16.9182415,22.2765217 8.4124899,36.4244919 
			12.4491224,36.4244919 21.0357704,21.8584976 		"/>
		<path d="M31.5371761,26.241375c-0.8691235-1.0363197-2.2531185-1.6068802-3.8958797-1.6068802
			c-0.920969,0-1.7316685,0.2480927-2.3579884,0.531929l0.9116001-2.9854584h7.0023689l0.6208344-3.5190277H23.7891827
			l-2.8927212,9.349596l-0.0636997,0.2097416l2.9749107,1.6771431l0.144722-0.1910973
			c0.8372116-1.1091938,1.7355824-1.6242733,2.8251228-1.6242733c0.6634369,0,1.1981697,0.2178059,1.5417347,0.627821
			c0.3809624,0.4537086,0.5163155,1.1238499,0.382267,1.8868828c-0.2707615,1.5444717-1.6520767,2.4666748-2.8277874,2.4666748
			c-1.1755714,0-1.9426308-0.6249313-2.2769508-1.8576221l-0.0876026-0.3290462l-3.7552662,1.9743462l0.0717106,0.2178078
			c0.7164459,2.1707191,2.7758694,3.4685555,5.5081005,3.4685555c3.580061,0,6.5047665-2.4044342,7.1136799-5.8464775
			C32.7671318,28.8714142,32.4541206,27.3320789,31.5371761,26.241375z"/>
	</g>
</g>
</svg>
