<?xml version="1.0" encoding="utf-8"?>
<!-- Generator: Adobe Illustrator 24.2.2, SVG Export Plug-In . SVG Version: 6.00 Build 0)  -->
<svg version="1.1" id="Layer_1" xmlns="http://www.w3.org/2000/svg" xmlns:xlink="http://www.w3.org/1999/xlink" x="0px" y="0px"
	 viewBox="0 0 60 60" style="enable-background:new 0 0 60 60;" xml:space="preserve">
<g>
	<path d="M41.3717117,44.5109634h-8.8979988v-2.7254982h18.2826996c0.4609985,0,0.7826996-0.3213005,0.7826996-0.7812996
		c0-0.3760033-0.2993011-0.7817001-0.7826996-0.7817001H9.2027121c-0.4834003,0-0.7827005,0.4056969-0.7827005,0.7817001
		c0,0.4599991,0.3218002,0.7812996,0.7827005,0.7812996h17.9237976v2.7254982h-8.8978958
		c-0.376503,0-0.7827034,0.2989006-0.7827034,0.7812996c0,0.4018021,0.3803005,0.7817001,0.7827034,0.7817001h23.1430969
		c0.402298,0,0.7826996-0.3798981,0.7826996-0.7817001C42.1544113,44.809864,41.7481117,44.5109634,41.3717117,44.5109634z
		 M30.9083118,41.7854652v2.7254982h-2.2168007v-2.7254982H30.9083118z"/>
	<path d="M9.5098114,13.8513641H7.330112c-0.4023004,0-0.7827001,0.3799-0.7827001,0.7817001v2.1763
		c0,0.3944988,0.3877001,0.7817001,0.7827001,0.7817001c0.4833999,0,0.7828002-0.4057007,0.7828002-0.7817001v-1.3945999h1.3968992
		c0.3765001,0,0.7827005-0.2988005,0.7827005-0.7817001C10.2925119,14.2312641,9.9122114,13.8513641,9.5098114,13.8513641z"/>
	<path d="M13.9971113,15.4147644h4.5518007c0.3764992,0,0.7827034-0.2988005,0.7827034-0.7817001
		c0-0.4018002-0.3804035-0.7817001-0.7827034-0.7817001h-4.5518007c-0.4022999,0-0.7826996,0.3799-0.7826996,0.7817001
		C13.2144117,15.1159639,13.6207113,15.4147644,13.9971113,15.4147644z"/>
	<path d="M23.0367107,15.4147644h4.4878006c0.4603996,0,0.7821999-0.3212004,0.7821999-0.7817001
		c0-0.3760004-0.2987995-0.7817001-0.7821999-0.7817001h-4.4878006c-0.4833984,0-0.7826996,0.4056997-0.7826996,0.7817001
		C22.2540112,15.093564,22.5758114,15.4147644,23.0367107,15.4147644z"/>
	<path d="M32.0758095,15.4147644h4.4877014c0.4609985,0,0.7827988-0.3212004,0.7827988-0.7817001
		c0-0.3760004-0.2994003-0.7817001-0.7827988-0.7817001h-4.4877014c-0.4833984,0-0.782299,0.4056997-0.782299,0.7817001
		C31.2935104,15.093564,31.6153107,15.4147644,32.0758095,15.4147644z"/>
	<path d="M45.6026154,13.8513641h-4.5513039c-0.4028015,0-0.7831993,0.3799-0.7831993,0.7817001
		c0,0.4828997,0.4062996,0.7817001,0.7831993,0.7817001h4.5513039c0.3764954,0,0.7826958-0.2988005,0.7826958-0.7817001
		C46.3853111,14.2312641,46.0050125,13.8513641,45.6026154,13.8513641z"/>
	<path d="M52.2061119,13.8513641h-2.1156998c-0.4023018,0-0.7826996,0.3799-0.7826996,0.7817001
		c0,0.4828997,0.4061966,0.7817001,0.7826996,0.7817001h1.3324966v1.3945999c0,0.3944988,0.3877068,0.7817001,0.7832031,0.7817001
		c0.4833984,0,0.782299-0.4057007,0.782299-0.7817001v-2.1763C52.9884109,14.2570639,52.6895103,13.8513641,52.2061119,13.8513641z"
		/>
	<path d="M52.2061119,29.2771645c-0.3768997,0-0.7832031,0.2987995-0.7832031,0.7817001v4.4165001
		c0,0.4828987,0.4063034,0.7817001,0.7832031,0.7817001c0.4605026,0,0.782299-0.3213005,0.782299-0.7817001v-4.4165001
		C52.9884109,29.5983639,52.6666145,29.2771645,52.2061119,29.2771645z"/>
	<path d="M52.2061119,20.4440632c-0.3768997,0-0.7832031,0.2989006-0.7832031,0.7818012v4.4165001
		c0,0.3944988,0.3877068,0.7817001,0.7832031,0.7817001c0.4833984,0,0.782299-0.4057007,0.782299-0.7817001v-4.4165001
		C52.9884109,20.7653637,52.6666145,20.4440632,52.2061119,20.4440632z"/>
	<path d="M52.2061119,38.1101646c-0.3954964,0-0.7832031,0.3871994-0.7832031,0.7817001v1.3306007h-1.3324966
		c-0.4023018,0-0.7826996,0.3797989-0.7826996,0.7817001c0,0.482399,0.4061966,0.7812996,0.7826996,0.7812996h2.1156998
		c0.4605026,0,0.782299-0.3213005,0.782299-0.7812996v-2.1123009
		C52.9884109,38.5158653,52.6895103,38.1101646,52.2061119,38.1101646z"/>
	<path d="M9.5098114,40.2224655H8.1129122v-1.3306007c0-0.3759995-0.2994003-0.7817001-0.7828002-0.7817001
		c-0.4023004,0-0.7827001,0.3797989-0.7827001,0.7817001v2.1123009c0,0.482399,0.4063001,0.7812996,0.7827001,0.7812996h2.1796994
		c0.3765001,0,0.7827005-0.2989006,0.7827005-0.7812996C10.2925119,40.6096649,9.904912,40.2224655,9.5098114,40.2224655z"/>
	<path d="M7.330112,26.4240646c0.4833999,0,0.7828002-0.4057007,0.7828002-0.7817001v-4.4165001
		c0-0.4605007-0.3218002-0.7818012-0.7828002-0.7818012c-0.3764,0-0.7827001,0.2989006-0.7827001,0.7818012v4.4165001
		C6.5474119,26.0441647,6.9278116,26.4240646,7.330112,26.4240646z"/>
	<path d="M7.330112,35.2570648c0.461,0,0.7828002-0.3213005,0.7828002-0.7817001v-4.4165001
		c0-0.4605007-0.3218002-0.7817001-0.7828002-0.7817001c-0.3764,0-0.7827001,0.2987995-0.7827001,0.7817001v4.4165001
		C6.5474119,34.9582634,6.953712,35.2570648,7.330112,35.2570648z"/>
</g>
</svg>
