<?xml version="1.0" encoding="utf-8"?>
<!-- Generator: Adobe Illustrator 22.0.1, SVG Export Plug-In . SVG Version: 6.00 Build 0)  -->
<svg version="1.1" id="Layer_1" xmlns="http://www.w3.org/2000/svg" xmlns:xlink="http://www.w3.org/1999/xlink" x="0px" y="0px"
	 viewBox="0 0 60 60" style="enable-background:new 0 0 60 60;" xml:space="preserve">
<g>
	<g>
		<path d="M23.8525639,24.0344257c-0.0883999-0.0581017-0.1787014-0.1128006-0.2686005-0.1680012
			c-0.1044998-0.0643997-0.2070007-0.1308002-0.3134995-0.1913986c-0.1132011-0.0644016-0.2293777-0.1225014-0.3437004-0.1816006
			c-0.1074009-0.0557003-0.2124004-0.1138-0.3223-0.1651001c-0.1186008-0.0566006-0.2402-0.1063995-0.3618011-0.1582012
			c-0.107399-0.0458984-0.2142982-0.0951996-0.3237-0.1371994c-0.1264992-0.0487995-0.2548752-0.0897999-0.381876-0.1332989
			c-0.1074238-0.0370998-0.214323-0.076601-0.3222237-0.1103001c-0.1347752-0.0405006-0.2709999-0.0733013-0.4062996-0.1089001
			c-0.1044769-0.0269012-0.2089996-0.0580997-0.3148994-0.081501c-0.1450005-0.0327988-0.2919998-0.0571995-0.4395008-0.0830994
			c-0.0980759-0.0174999-0.1947994-0.0400009-0.2938995-0.0542011c-0.1660004-0.0248985-0.3334999-0.0404987-0.4995003-0.0565987
			c-0.0830002-0.0078011-0.1646004-0.0209999-0.2470989-0.0268002c-0.153801-0.0118008-0.3095779-0.0132008-0.4643002-0.0170994
			v3.5609989c1.2064991,0.0571003,2.3285999,0.4330997,3.2840996,1.0513L23.8525639,24.0344257z"/>
		<path d="M8.0400867,32.8694267c0.0062771,0.1800995,0.0087767,0.3607979,0.022377,0.5394974
			c0.0068998,0.0874023,0.0225,0.1738014,0.0323,0.2607994c0.0190001,0.1855011,0.0375996,0.3715019,0.0677996,0.5545998
			c0.0160999,0.1065025,0.0425234,0.2105026,0.0640001,0.3155022c0.0313005,0.1620979,0.0609999,0.3251991,0.1011,0.4857979
			c0.0263004,0.1113014,0.0635004,0.2193031,0.0952005,0.330101c0.0424995,0.1514015,0.0830002,0.3036995,0.1328001,0.4531021
			c0.0375996,0.1127968,0.0844994,0.2226982,0.1254997,0.3334999c0.0542002,0.1436005,0.1059227,0.2885971,0.1665001,0.4296989
			c0.0478001,0.1123009,0.1044998,0.2201996,0.1557999,0.3306007c0.0654001,0.1371994,0.1279001,0.2748985,0.1991997,0.410099
			c0.0576,0.1099014,0.1234999,0.216301,0.1859999,0.3241997c0.0752001,0.1304016,0.1480007,0.2621994,0.2295008,0.3897018
			c0.0683994,0.1078987,0.1435995,0.2113991,0.2167997,0.3163986c0.0712996,0.1044998,0.1415997,0.2080002,0.2172995,0.3096008
			l2.8393002-2.1371994c-0.7641001-1.0293007-1.2357998-2.2837029-1.2987995-3.6459999H8.0400867z"/>
		<path d="M17.9706631,22.3645248c-2.6019993,0.0737-4.9593992,1.1191006-6.7269993,2.7900009l2.5034227,2.5038986
			c1.1240005-1.0292988,2.5985765-1.6758003,4.2235765-1.7391987V22.3645248z"/>
		<path d="M10.8344641,25.5637245c-1.6713772,1.767601-2.7173004,4.125-2.7905006,6.7266006h3.5468998
			c0.0659008-1.6259995,0.7148008-3.1000996,1.7465-4.2231998L10.8344641,25.5637245z"/>
	</g>
	<g>
		<path d="M12.1513634,33.0754242c0.0044003,0.0531998,0.0137234,0.1049995,0.0186005,0.1576996
			c0.0131226,0.1114006,0.0243998,0.2217026,0.0415001,0.3316002c0.0101995,0.0615005,0.0248995,0.1211014,0.036623,0.1821022
			c0.0194769,0.0990982,0.0380764,0.1991997,0.0624771,0.2978973c0.0150995,0.0643997,0.0375996,0.127903,0.0546999,0.1923027
			c0.0253992,0.0923004,0.0511999,0.1851006,0.0815001,0.2763977c0.0219994,0.065403,0.0487995,0.1299019,0.0741997,0.1953011
			c0.0326996,0.0873985,0.0644999,0.1748009,0.1015997,0.2602997c0.0278006,0.0669022,0.0601006,0.1318016,0.0913,0.1977005
			c0.0386,0.0816002,0.0772238,0.1646004,0.1196003,0.2447014c0.0341997,0.0663986,0.0738001,0.1312981,0.1113997,0.197197
			c0.0444002,0.0767021,0.0888004,0.153801,0.1362238,0.2294998c0.0429993,0.065403,0.0868769,0.1309013,0.1322765,0.1948013
			c0.0357227,0.0527992,0.0723,0.1040001,0.1104002,0.1567993l2.3900995-1.8008003
			c-0.3290997-0.4575005-0.5165997-0.9771004-0.5678997-1.5194969h-3.0018768
			C12.1464634,32.9382248,12.1464634,33.0071259,12.1513634,33.0754242z"/>
		<path d="M18.5493641,29.4641247c0.4510994,0.0424995,0.8900986,0.1792011,1.2875996,0.4136009l1.6947994-2.466301
			c-0.0186005-0.0123005-0.0380993-0.0229988-0.0566769-0.0352001c-0.2172222-0.1357002-0.4414234-0.2587986-0.6718235-0.3647003
			c-0.0292988-0.0136986-0.0585995-0.0248985-0.0869999-0.0375996c-0.2381763-0.1054993-0.4798985-0.1973-0.7290001-0.2709999
			c-0.0228996-0.0058994-0.046299-0.0112991-0.0692997-0.0180988c-0.2558765-0.0723-0.5170994-0.1304016-0.7821999-0.1690006
			c-0.0131989-0.0018997-0.0273991-0.0029011-0.0410004-0.0048008c-0.1796761-0.0248985-0.3632984-0.0298004-0.5453987-0.0380993
			V29.4641247z"/>
		<path d="M14.1425638,28.0539246l2.1156988,2.1147995c0.4732018-0.3940983,1.0640011-0.6503983,1.7124004-0.7099991v-2.9922009
			C16.4985638,26.5364246,15.1650867,27.1238251,14.1425638,28.0539246z"/>
		<path d="M12.1464634,32.2903252h2.9921999c0.0586004-0.647501,0.3158998-1.2392998,0.7095003-1.7124004l-2.1142998-2.1147995
			C12.8027639,29.4851246,12.2153635,30.8191242,12.1464634,32.2903252z"/>
	</g>
	<g>
		<g>
			<path d="M17.9570866,18.2414246c-3.733923,0.0747013-7.1201229,1.5825996-9.631423,3.9952011l2.5073004,2.5067997
				c1.8681993-1.772501,4.3671999-2.8799,7.1241226-2.9463005V18.2414246z"/>
			<path d="M7.9160867,22.646225c-2.4126229,2.5121994-3.9195228,5.8974991-3.9947228,9.6304016h3.5611
				c0.0654001-2.7559013,1.1703997-5.2544022,2.9408998-7.1231022L7.9160867,22.646225z"/>
			<path d="M26.167963,20.6325245c-2.2738762-1.5156002-4.9042988-2.3333988-7.6322994-2.3875999v3.5551014
				c2.0683002,0.0611,3.9927006,0.7006989,5.6098003,1.7743988L26.167963,20.6325245z"/>
			<path d="M3.9257638,32.8557243c0.0581,2.9995003,1.0269001,5.8466988,2.8261998,8.2588005l2.8671999-2.1596985
				c-1.2826996-1.7129021-2.0654998-3.815403-2.1337996-6.099102H3.9257638z"/>
		</g>
		<g>
			<g>
				<path d="M27.5712624,24.0012245h3.0142002v16.1772003h-3.0142002V24.0012245z"/>
				<path d="M32.557663,24.0012245h5.5405006c3.346199,0,5.828598,2.5703011,5.828598,5.7612
					c0,3.2134018-2.482399,5.7841988-5.8510971,5.7841988h-2.5039024v4.6318016H32.557663V24.0012245z M35.5717621,26.7932243
					v5.9613991h2.3047028c1.7953987,0,3.0141983-1.3295975,3.0141983-2.9921989
					c0-1.6395988-1.2187996-2.9692001-3.0141983-2.9692001H35.5717621z"/>
				<path d="M44.5693626,37.4973259l2.7480011-2.1724014c0.8202972,1.3964996,2.0839996,2.1944008,3.5458984,2.1944008
					c1.596199,0,2.4599991-1.0415001,2.4599991-2.1719017c0-1.3739967-1.639698-1.794899-3.3681755-2.3266983
					c-2.1723213-0.6875-4.5869217-1.5293007-4.5869217-4.6098003c0-2.5928001,2.2598-4.6313992,5.3622971-4.6313992
					c2.6152,0,4.1221008,0.9975986,5.429203,2.3491001l-2.4819031,1.8832989
					c-0.6870003-1.0194988-1.6396751-1.551199-2.9252968-1.551199c-1.4623756,0-2.2603035,0.7978001-2.2603035,1.8393002
					c0,1.2856998,1.5513,1.7065983,3.3018036,2.282299c2.1942978,0.7094002,4.6762962,1.6845016,4.6762962,4.7876015
					c0,2.5482979-2.0385971,5.0301971-5.5844994,5.0301971C47.9604645,40.4001236,46.0322609,39.1589241,44.5693626,37.4973259z"/>
			</g>
		</g>
	</g>
</g>
</svg>
