<svg xmlns="http://www.w3.org/2000/svg" viewBox="-0.5 11.5 51 51"><path d="M20.155 28.347c-.098-.001-.195-.004-.293-.004h-1.944c-.043 0-.078-.004-.112-.038-.445-.448-.892-.894-1.338-1.34-.01-.01-.016-.022-.025-.033h5.14l-.003.1v5.016c-.014 0-.022.003-.025 0L20.17 30.66c-.01-.03-.005-.061-.005-.092v-2.13c0-.03.008-.062-.01-.091zM50.132 37.16c-.046.116-.04.242-.066.363-.016.073-.03.148-.032.223-.001.062-.029.058-.073.052-.173-.026-.347-.052-.52-.074a6.74 6.74 0 00-1.33-.049 2.73 2.73 0 00-.599.104c-.453.138-.707.451-.806.905-.044.2-.059.403-.06.606-.002.885-.002 1.77 0 2.653 0 .235.021.468.082.696.125.47.44.743.904.85.383.087.773.096 1.165.075.399-.02.794-.067 1.187-.135.044-.007.044.014.048.046l.084.595c.002.012.003.022.016.025v.05c-.174.03-.345.076-.52.103a7.836 7.836 0 01-.756.086c-.029.012-.06-.003-.088.012h-.565c-.027-.017-.058 0-.086-.011a3.57 3.57 0 01-.96-.175 1.936 1.936 0 01-.68-.374 1.841 1.841 0 01-.571-.922 3.424 3.424 0 01-.109-.621 5.346 5.346 0 01-.014-.44c0-.905-.01-1.809.006-2.712.007-.364.086-.72.245-1.057a1.823 1.823 0 011.063-.941c.554-.2 1.13-.223 1.708-.197a6.3 6.3 0 011.245.178c.031.008.055.022.082.035v.05z" fill="#040000"/><path d="M1.108 31.747c-.023.038-.06.02-.091.02-.372.002-.744.002-1.116.002v-.034h.015c.03-.01.06-.01.091-.01h.98c.041 0 .085-.006.121.022z" fill="#fdfdfd"/><path d="M33.439 47.102c.005-.018-.008-.04.016-.052.236.018.472.004.708.009.043 0 .09-.009.127.024l.005.019h-.856z" fill="#5a5757"/><path d="M24.96 37.071v-.596c.014-.028.002-.059.01-.087a2.93 2.93 0 01.158-.864c.095-.27.25-.5.465-.683.262-.223.574-.353.908-.432.264-.063.532-.105.803-.124.086-.006.172-.01.257-.018.036-.011.074.004.109-.011h.639c.035.015.073 0 .108.011.318.015.635.047.95.09a9.71 9.71 0 011.115.22c.04.01.058.031.052.075-.026.178-.045.356-.077.533-.028.159-.033.156-.195.122a11 11 0 00-.742-.132 11.239 11.239 0 00-.914-.103l-.248-.014c-.035-.013-.072-.002-.107-.008a3.856 3.856 0 00-.472-.001c-.045.01-.092-.008-.136.01-.402.005-.798.046-1.173.207-.318.137-.493.39-.57.718a2.087 2.087 0 00-.053.586 3.341 3.341 0 000 .497c-.004.272 0 .543.077.808.07.241.224.41.44.527.318.172.666.26 1.011.354.618.166 1.244.301 1.848.52.277.1.548.215.791.387.32.226.5.537.57.918.052.28.066.562.07.845.01.173.005.346.004.519-.01.163-.019.326-.04.489-.067.507-.235.966-.635 1.31-.27.231-.589.365-.93.451a5.325 5.325 0 01-.99.142c-.027.006-.058-.006-.085.01h-.683c-.027-.016-.057-.004-.086-.01-.106-.018-.214-.01-.322-.02a9.696 9.696 0 01-.817-.112 7.092 7.092 0 01-1.136-.296c-.063-.022-.078-.04-.062-.107.054-.212.098-.425.147-.642a9.662 9.662 0 001.59.333c.22.024.44.054.662.05.034.015.07.001.105.01.18.01.359.007.538.002.033-.013.07.005.103-.013.39-.007.768-.067 1.118-.252.317-.168.495-.442.576-.782.068-.29.074-.586.07-.882l-.007-.403c-.012-.027.005-.059-.012-.086-.009-.244-.044-.48-.184-.689a.903.903 0 00-.312-.278c-.238-.135-.498-.217-.76-.294a12.642 12.642 0 00-.747-.192 19.19 19.19 0 01-1.021-.258 4.338 4.338 0 01-.84-.32c-.307-.164-.565-.382-.713-.706a2.404 2.404 0 01-.176-.663 4.842 4.842 0 01-.04-.528c-.01-.045.007-.093-.01-.138zM5.61 35.195H.993c-.022 0-.044.003-.066.005-.016.023-.009.05-.009.074v3.603c0 .025-.007.05.009.074.03.002.06.006.091.006 1.394 0 2.788 0 4.182-.002.074 0 .098.016.095.094-.006.205-.005.409 0 .613.002.072-.018.086-.087.085-1.396-.002-2.793-.001-4.19 0-.03 0-.06.003-.091.005-.018.031-.008.066-.008.098l-.001 4.247c0 .033.007.067-.007.1-.255 0-.51-.004-.764.001-.083.002-.11-.015-.11-.106.003-2.507.002-5.013.002-7.52 0-.694.002-1.388-.001-2.082 0-.07.016-.086.086-.086 1.83.002 3.66.001 5.49.001.015.208.003.416.006.625 0 .054.01.11-.008.165zM39.72 44.196c-.257 0-.514-.003-.772.002-.07.001-.086-.017-.086-.086.002-2.323.002-4.646.002-6.969v-.1c.076-.02.154-.009.231-.008.175.001.35-.01.524.006.017.19.036.381.05.572.005.07.036.053.076.034.347-.173.71-.305 1.079-.423.42-.135.845-.243 1.284-.302.222-.03.444-.043.666-.028.318.022.62.098.871.316.207.18.324.409.389.668.049.194.069.392.069.592l.001 5.633c0 .076-.018.097-.094.095-.255-.005-.51-.002-.764-.002-.014-.032-.007-.066-.007-.099v-5.698c0-.033.007-.067-.009-.1-.009-.34-.214-.542-.531-.587-.412-.06-.807.037-1.201.136a8.564 8.564 0 00-1.697.622c-.023.011-.053.017-.066.045-.014.033-.007.067-.007.1v5.482c0 .033.007.067-.007.1zM34.29 47.083l-.772.002c-.027 0-.059.006-.063-.035l.235-.642.356-.968c.121-.327.244-.654.366-.98.025-.068.04-.139.073-.202.033-.067-.004-.062-.048-.062h-.36c-.033 0-.054-.004-.067-.043-.225-.67-.452-1.337-.678-2.006-.255-.751-.51-1.503-.763-2.255-.232-.687-.463-1.374-.696-2.06-.084-.248-.17-.495-.256-.743-.005-.015-.006-.032-.009-.048.164-.016.328-.006.491-.006.128 0 .256-.011.383.007l.99 2.945 1.176 3.499c.007.019.016.037.032.072.06-.17.115-.322.167-.476.215-.634.428-1.27.642-1.904l.724-2.14.67-1.99c.01-.02.029-.014.045-.014h.804c.014 0 .028 0 .04.01l-.32.936-1.027 3.038c-.226.667-.457 1.331-.679 1.999a97.405 97.405 0 01-1.057 2.974c-.135.364-.266.728-.399 1.092zM7.829 30.361c-.134-.155-.272-.307-.402-.465-.184-.224-.38-.437-.564-.662a3.705 3.705 0 00-.21-.239c-.02.028-.008.06-.009.09v2.577c0 .098 0 .098-.1.098-.317 0-.633-.001-.95.001-.056 0-.076-.013-.076-.074.002-1.446.001-2.893.001-4.34 0-.037-.006-.072.052-.071.305.002.61 0 .915.002.005 0 .01.004.015.006l.582.676.713.828c.04.046.087.086.122.145.104-.1.183-.215.28-.315.097-.1.18-.213.272-.32a64.113 64.113 0 01.778-.895c.037-.04.06-.093.11-.123.307-.008.615 0 .922-.004.043 0 .064.01.059.056-.002.014 0 .028 0 .042v4.29c0 .096 0 .096-.094.096h-.94c-.028 0-.057.007-.083-.009v-2.764a75.452 75.452 0 00-.017-.009l-1.176 1.378c-.066.019-.133.01-.2.005zM7.994 37.84l.002.217c0 .033 0 .06.045.03.326-.223.66-.433 1-.633.28-.165.565-.327.868-.452.078-.032.158-.06.233-.098.03-.016.063-.03.07.027.027.253.055.506.086.758.005.04-.01.054-.041.067a8.49 8.49 0 00-1.045.55c-.372.228-.736.467-1.104.701-.044.028-.064.06-.064.119.002 1.659.001 3.318.004 4.977 0 .077-.02.097-.095.095-.255-.005-.51-.002-.764-.002-.013-.03-.007-.06-.007-.09v-6.969c0-.117-.011-.103.103-.103h.596c.027 0 .056-.01.08.011l.008.284c.007.033-.007.069.01.102l.005.3c.01.036-.004.073.01.108zM17.871 30.638c.029.016.06.008.09.008h1.906c.013.03-.016.04-.03.053l-1.357 1.36a.13.13 0 01-.101.044 320.45 320.45 0 00-1.897 0c-.06 0-.074-.016-.073-.074.002-.638 0-1.276 0-1.913 0-.036.001-.068.032-.098.467-.463.931-.928 1.397-1.392.048.017.023.058.023.085.002.613.001 1.225.002 1.837 0 .03-.009.061.008.09z" fill="#040000"/><path d="M6.501 27.284c-.161-.017-.323-.005-.485-.007-.143-.002-.286.002-.429-.002-.056-.001-.07.019-.069.072.002.327.001.655.001.982 0 1.111.001 2.222-.002 3.333 0 .078.022.095.097.094.316-.004.632-.003.948 0 .064.001.078-.015.078-.078-.002-.867-.002-1.735-.001-2.602l.003-.084.005-.002.006.005c0 .89-.001 1.779.002 2.668 0 .084-.02.11-.106.108a34.555 34.555 0 00-.948 0c-.067 0-.092-.015-.092-.088.002-1.443.002-2.886 0-4.33 0-.062.013-.088.083-.087.28.004.56.002.84.002.023 0 .05-.007.07.016zM7.962 37.045c-.052-.019-.106-.009-.158-.009-.185-.001-.37.001-.554-.001-.05-.001-.076.009-.067.063.002.014 0 .028 0 .042v6.965c0 .03.004.06.006.091-.026-.025-.015-.058-.015-.087-.001-2.328 0-4.655-.003-6.983 0-.08.02-.105.102-.103.201.006.403.002.604.003.029 0 .063-.014.085.02z" fill="#fdfdfd"/><path d="M9.222 31.751l1.065.004c.041 0 .056-.013.052-.052-.002-.017 0-.034 0-.05v-4.271c0-.12.014-.105-.11-.105l-.872.003c.02-.017.042-.012.064-.012.283 0 .565.001.847-.002.064 0 .08.02.08.081v4.346c0 .048-.005.077-.066.077-.336-.002-.671-.001-1.007-.001-.02 0-.04.001-.053-.018zM12.016 40.888c.027-.022.059-.01.088-.01 1.41 0 2.821-.001 4.231.001.083 0 .1-.02.1-.1-.005-.49-.004-.98-.005-1.47.022.024.013.054.013.08 0 .468-.001.936.003 1.403 0 .077-.022.098-.099.098-1.444-.003-2.887-.002-4.331-.002zM43.23 38.3c.02.03.01.065.01.098v5.698c0 .034.004.067.006.1-.023-.02-.016-.046-.016-.07V38.3zM39.72 44.196c.003-.033.006-.066.006-.1v-5.482c0-.033-.008-.067.01-.099l.001.11v5.467c0 .035.013.073-.016.104z" fill="#fcfcfc"/><path d="M.91 44.196c.002-.033.005-.066.005-.1l.001-4.256c0-.03-.012-.061.01-.088v4.34c0 .035.013.073-.016.104z" fill="#fdfdfd"/><path d="M18.766 40.888c.027-.022.06-.01.089-.01h4.223c.033 0 .067-.004.1-.006-.025.027-.058.016-.087.016h-4.325z" fill="#fcfcfc"/><path d="M.926 38.95c-.02-.02-.01-.047-.01-.07v-3.608c0-.024-.01-.05.01-.072v3.75z" fill="#fdfdfd"/><path d="M20.155 28.347c.029.017.013.045.013.067v2.246c-.023-.027-.013-.059-.013-.089v-2.224zM13.386 27.28l-2.1-.003c-.033 0-.066.004-.1.006.024-.024.053-.015.08-.015h2.04c.027 0 .056-.008.08.012zM11.187 31.751l.999.003 1.05.002c-.025.02-.054.012-.081.012h-1.882c-.029 0-.062.012-.086-.017zM17.871 30.638c-.018-.029-.008-.06-.008-.09 0-.61 0-1.222-.002-1.833 0-.03.02-.069-.023-.089.013-.01.027-.012.03.007.004.022.003.044.003.067v1.938z" fill="#fcfcfc"/><path d="M1.443 30.877c.02-.002.038-.007.057-.007h1.866c.019 0 .04-.006.056.009l-1.979-.002zM3.025 27.286c-.017-.003-.033-.01-.05-.01l-1.258.002c.022-.016.048-.01.073-.01h1.157c.027 0 .057-.01.078.018zM3.798 31.755h1.108c.033 0 .067.006.1-.009-.012.027-.036.023-.058.023H3.845c-.017 0-.034 0-.047-.014z" fill="#fdfdfd"/><path d="M37.771 37.044c-.19-.02-.382-.006-.573-.007-.105 0-.21-.016-.314.011.01-.027.035-.023.056-.023h.78c.02 0 .04-.001.051.019zM32.482 37.042c-.291-.011-.583-.01-.874 0 .017-.021.04-.017.062-.017h.75c.022 0 .046-.004.062.017z" fill="#fcfcfc"/><path d="M5.61 35.195c.013-.264.01-.527.002-.79.02.017.016.04.016.062v.667c0 .021.004.045-.017.06z" fill="#fdfdfd"/><path d="M39.62 37.041a9.291 9.291 0 00-.756.002c.013-.02.033-.018.052-.018h.65c.02 0 .04-.002.053.016zM30.658 41.945l-.003-.52c.029.081.012.165.012.247 0 .09.015.183-.01.273zM25.846 37.067a2.697 2.697 0 01.001-.497v.497zM15.64 29.686v-.319a.76.76 0 010 .319z" fill="#fcfcfc"/><path d="M7.829 30.361c.067.005.134.014.2-.005-.066.032-.133.025-.2.005zM13.806 43.588c-.05-.01-.103.008-.153-.012.051.004.104-.015.153.012zM14.1 43.577c-.052.018-.106.002-.158.01.051-.024.105-.008.158-.01z" fill="#fdfdfd"/><path d="M20.848 43.576c-.05.02-.104.004-.155.01.05-.023.103-.007.155-.01zM24.96 37.071c.018.045.004.092.01.138-.024-.044-.008-.092-.01-.138zM27.643 35.06c.044-.02.09-.005.136-.011-.044.023-.09.007-.136.01zM20.54 43.585c-.046-.004-.093.01-.138-.009.046.002.093-.012.138.01zM17.888 41.877c.021.038.005.08.011.118-.023-.037-.007-.079-.01-.118z" fill="#fcfcfc"/><path d="M7.978 37.43c-.019-.032-.005-.067-.009-.101.02.032.007.068.01.102z" fill="#fdfdfd"/><path d="M28.25 35.05c.036.004.073-.009.108.008-.036 0-.073.012-.107-.008z" fill="#fcfcfc"/><path d="M7.994 37.84c-.016-.036-.005-.073-.01-.109.023.034.008.072.01.108z" fill="#fdfdfd"/><path d="M17.898 39.26c-.004.034.01.07-.01.102.003-.034-.01-.07.01-.102zM28.417 34.267c-.036-.006-.073.006-.108-.011.036.002.074-.014.108.011zM27.67 34.256c-.035.017-.073.005-.109.011.034-.025.072-.01.109-.011zM13.385 31.751a.24.24 0 01.102-.012c-.032.024-.068.01-.102.012zM27.376 43.553c-.035-.005-.071.008-.105-.01.035.001.072-.012.105.01zM28.017 43.542c-.032.019-.069.005-.103.013.032-.025.069-.01.103-.013zM24.97 36.388c-.005.029.006.06-.01.087 0-.03-.01-.06.01-.087zM29.762 41.137c.017.027.007.058.012.086-.023-.026-.01-.057-.012-.086zM15.637 29.267a.159.159 0 01-.013-.084c.023.025.01.056.013.084zM13.588 27.298a.164.164 0 01-.086-.013c.03.002.06-.01.086.013z" fill="#fcfcfc"/><path d="M13.455 44.334c.028.006.058-.005.085.013-.029-.003-.06.01-.085-.013zM14.135 44.346l.091-.012c-.028.023-.06.01-.091.012z" fill="#fdfdfd"/><path d="M20.874 44.346c.027-.018.058-.005.086-.009-.027.019-.057.008-.086.01zM27.21 44.337c.028.004.058-.01.085.01-.029-.002-.059.009-.086-.01zM27.978 44.346c.027-.018.057-.005.086-.009-.027.019-.057.008-.086.01zM48.117 44.335c.029.005.06-.007.086.012-.029-.002-.06.01-.086-.012zM48.768 44.346c.027-.016.058-.007.088-.012-.027.023-.059.01-.088.012z" fill="#fcfcfc"/><path d="M12.025 42.038l-.012-.092c.024.028.01.06.012.092z" fill="#fdfdfd"/><path d="M23.162 39.13a3.131 3.131 0 00-.12-.709c-.127-.427-.346-.792-.712-1.062-.453-.334-.976-.438-1.52-.465a4.336 4.336 0 00-.965.048 2.86 2.86 0 00-.717.213c-.31.143-.573.345-.773.624a2.372 2.372 0 00-.383.898c-.04.192-.062.387-.074.583-.007.034.007.07-.01.102v2.515c.019.038.001.08.011.118.016.09.009.182.02.273.036.292.1.574.218.846.14.32.342.582.63.782.198.138.413.232.64.303.277.087.561.124.847.143.206.014.414.004.62.004.028-.015.058-.003.086-.009a9 9 0 001.134-.141c.3-.058.596-.13.885-.23.04-.013.054-.03.045-.07-.044-.195-.093-.39-.128-.588-.012-.063-.041-.056-.078-.048-.085.02-.168.046-.253.066a10.29 10.29 0 01-.867.17 5.866 5.866 0 01-.85.08c-.05.017-.104 0-.155.01a.423.423 0 01-.153 0c-.045-.008-.092.006-.138-.01a2.201 2.201 0 01-.654-.086c-.267-.074-.502-.2-.675-.426-.227-.296-.292-.645-.309-1.003-.016-.363-.005-.727-.005-1.09 0-.028-.007-.057.007-.083.032-.017.066-.008.099-.008l4.214-.001c.033 0 .067.007.099-.007-.01-.58.019-1.162-.016-1.743zm-.91.97c-.57.002-1.141.001-1.712.001-.565 0-1.13-.002-1.695.002-.077.001-.09-.022-.088-.092.005-.255-.007-.51.006-.764.02-.403.097-.791.369-1.112.195-.23.45-.36.739-.426a2.933 2.933 0 011.488.025c.53.152.808.53.913 1.056.083.418.052.84.06 1.261.002.07-.046.05-.08.05zM16.43 39.31c-.009-.267-.04-.53-.105-.79-.18-.709-.599-1.205-1.296-1.453-.496-.177-1.01-.193-1.528-.17a3.32 3.32 0 00-.54.072 2.71 2.71 0 00-.743.272c-.21.114-.382.271-.537.447-.12.135-.206.296-.282.463a2.54 2.54 0 00-.238 1.017c-.016.856-.005 1.712-.009 2.568-.001.281.016.56.07.836.073.37.204.716.45 1.005.232.273.524.467.867.584.298.1.603.157.916.173.027.012.058-.005.085.013l.595-.001c.03-.014.062-.001.091-.012a8.22 8.22 0 00.815-.086 7.892 7.892 0 001.172-.27c.071-.022.07-.06.06-.114-.04-.183-.079-.365-.117-.548-.01-.05-.032-.07-.085-.055a8.792 8.792 0 01-.93.206c-.344.057-.69.112-1.04.11-.053.016-.107-.001-.16.01l-.135.001c-.05-.014-.103.007-.153-.012a2.132 2.132 0 01-.584-.07c-.411-.097-.735-.31-.9-.718a1.964 1.964 0 01-.144-.75c-.013-.03-.001-.062-.012-.092l-.003-.291c.001-.256.004-.512.006-.767.031-.018.066-.008.098-.008l4.215-.001c.121 0 .105.013.106-.109v-1.369c0-.03.004-.061-.005-.091zm-.93.793c-.567-.004-1.135-.002-1.703-.002-.57 0-1.14 0-1.711.002-.064 0-.08-.016-.078-.078.008-.305-.012-.61.019-.913.043-.42.152-.811.485-1.103.203-.177.445-.274.704-.322a3.1 3.1 0 011.296.017c.563.132.89.494 1.009 1.055.06.283.07.57.067.857-.002.132-.005.264.001.395.003.07-.01.093-.088.092zM15.64 29.367l-.003-.1c-.018-.026 0-.057-.013-.084l-.037-.17c-.136-.666-.511-1.15-1.115-1.459-.278-.142-.578-.209-.884-.256-.027-.012-.059.005-.086-.013l-.116-.005c-.013-.004-.027-.003-.041-.003h-2.1c-.02 0-.04-.003-.058.006v4.468c.029.017.06.009.09.009h1.875c.028 0 .056.003.083-.004l.15-.005c.032-.018.07 0 .102-.012.296-.033.584-.094.861-.205.382-.154.702-.384.935-.729.23-.338.325-.719.358-1.12a2.133 2.133 0 000-.318zm-1.346.94c-.212.37-.551.55-.962.605-.323.043-.648.01-.972.02-.062.003-.05-.034-.05-.07v-1.35c0-.445 0-.89-.002-1.335 0-.06.012-.081.077-.08.321.01.643-.013.963.027.638.08 1.08.546 1.132 1.187.03.35-.009.687-.186.996zM4.91 31.547a649.15 649.15 0 01-1.606-3.619c-.095-.213-.186-.428-.28-.642-.01-.01-.025-.01-.039-.01-.423.002-.845-.002-1.268.002-.048.067-.07.147-.098.22-.137.367-.289.727-.435 1.09-.145.36-.294.717-.438 1.077-.145.363-.293.725-.435 1.089-.128.328-.263.654-.395.981.02.037.055.018.082.019h.927c.061 0 .123.009.183-.007.046-.158.11-.31.17-.462.053-.137.087-.28.165-.407.018-.012.038-.008.057-.008h1.866c.019 0 .039-.005.056.009.072.129.115.27.174.404.07.157.135.315.202.472.01.004.022.005.033.005h1.121c.018 0 .04.008.053-.014-.031-.066-.065-.132-.095-.2zm-1.893-1.46c-.425-.002-.85 0-1.286 0l.653-1.731c.08.193.151.367.224.54.154.371.307.742.464 1.111.029.069.016.081-.055.08z" fill="#040000"/></svg>