<?xml version="1.0" encoding="utf-8"?>
<!-- Generator: Adobe Illustrator 19.2.1, SVG Export Plug-In . SVG Version: 6.00 Build 0)  -->
<svg version="1.1" id="Layer_1" xmlns="http://www.w3.org/2000/svg" xmlns:xlink="http://www.w3.org/1999/xlink" x="0px" y="0px"
	 viewBox="0 0 60 60" style="enable-background:new 0 0 60 60;" xml:space="preserve">
<g>
	<polygon points="5.6323242,51.546875 7.3901367,51.546875 7.3901367,50.7558594 5.6323242,50.7558594 5.6323242,49.3417969 
		8.0126953,49.3417969 8.0126953,48.5585938 4.753418,48.5585938 4.753418,53.8613281 8.1079102,53.8613281 8.1079102,53.078125 
		5.6323242,53.078125 	"/>
	<path d="M10.1367188,52.9316406l-0.8935547-3.046875H8.3569336l1.3256836,3.984375
		c-0.1220703,0.1894531-0.284668,0.3515625-0.4873047,0.4863281s-0.4746094,0.2626953-0.8164062,0.3847656l0.2929688,0.7324219
		c0.5371094-0.1757812,0.9628906-0.4042969,1.2783203-0.6845703c0.3144531-0.28125,0.5429688-0.6386719,0.6845703-1.0732422
		l1.2597656-3.8300781H11.015625L10.1367188,52.9316406z"/>
	<path d="M13.996582,49.7890625c-0.546875,0-0.9716797,0.1816406-1.2744141,0.5458984s-0.4541016,0.8779297-0.4541016,1.5419922
		c0,0.6542969,0.1611328,1.1630859,0.4833984,1.5263672c0.3222656,0.3642578,0.7788086,0.5458984,1.3696289,0.5458984
		c0.2539062,0,0.5014648-0.0341797,0.7436523-0.1025391c0.2412109-0.0683594,0.4526367-0.1630859,0.6333008-0.2861328
		l-0.3149414-0.6513672c-0.3027344,0.1708984-0.6274414,0.2568359-0.9741211,0.2568359
		c-0.6396484,0-0.9960938-0.3417969-1.0693359-1.0253906h2.4902344c0.0244141-0.1367188,0.0366211-0.28125,0.0366211-0.4326172
		c0-0.6054688-0.1464844-1.0771484-0.4394531-1.4130859C14.934082,49.9570312,14.5239258,49.7890625,13.996582,49.7890625z
		 M13.1469727,51.5322266c0.0683594-0.6542969,0.3442383-0.9814453,0.8276367-0.9814453
		c0.2539062,0,0.4526367,0.0859375,0.597168,0.2558594c0.1435547,0.171875,0.2207031,0.4130859,0.2304688,0.7255859H13.1469727z"/>
	<path d="M20.0097656,50.8359375l-0.6005859-0.1679688c-0.2587891-0.0683594-0.4492188-0.1650391-0.5712891-0.2890625
		c-0.1220703-0.125-0.1831055-0.2851562-0.1831055-0.4804688c0-0.2148438,0.0756836-0.3779297,0.2270508-0.4902344
		s0.3710938-0.1679688,0.6591797-0.1679688c0.390625,0,0.8349609,0.0947266,1.3330078,0.2851562l0.2929688-0.703125
		c-0.2490234-0.1123047-0.5141602-0.1992188-0.7944336-0.2597656c-0.28125-0.0605469-0.5532227-0.0917969-0.8168945-0.0917969
		c-0.5517578,0-0.9814453,0.1386719-1.2890625,0.4179688c-0.3076172,0.2773438-0.4614258,0.6640625-0.4614258,1.15625
		c0,0.390625,0.1025391,0.703125,0.3076172,0.9375s0.534668,0.4160156,0.9887695,0.5429688l0.6005859,0.1679688
		c0.2587891,0.0683594,0.4477539,0.1650391,0.5678711,0.2890625c0.1191406,0.125,0.1791992,0.2851562,0.1791992,0.4804688
		c0,0.234375-0.0830078,0.4121094-0.2490234,0.5341797s-0.4125977,0.1826172-0.7397461,0.1826172
		c-0.4882812,0-0.9643555-0.1308594-1.4282227-0.3945312l-0.2856445,0.703125
		c0.2294922,0.1464844,0.4941406,0.2597656,0.7949219,0.3398438c0.2998047,0.0810547,0.6064453,0.1210938,0.9189453,0.1210938
		c0.5810547,0,1.0336914-0.1425781,1.3583984-0.4287109c0.324707-0.2851562,0.4873047-0.6845703,0.4873047-1.1972656
		c0-0.390625-0.1025391-0.7041016-0.3076172-0.9414062C20.793457,51.1455078,20.4638672,50.9628906,20.0097656,50.8359375z"/>
	<path d="M23.503418,49.7890625c-0.4394531,0-0.871582,0.1025391-1.2963867,0.3076172l0.2197266,0.6738281
		c0.3076172-0.1367188,0.6176758-0.2050781,0.9301758-0.2050781c0.5322266,0,0.7983398,0.2050781,0.7983398,0.6152344v0.1826172
		c-0.8007812,0.0058594-1.3857422,0.1191406-1.7539062,0.3408203c-0.3691406,0.2226562-0.5532227,0.5703125-0.5532227,1.0439453
		c0,0.3759766,0.1049805,0.6689453,0.3149414,0.8789062s0.5078125,0.3144531,0.8935547,0.3144531
		c0.5371094,0,0.9301758-0.2119141,1.1791992-0.6367188v0.5566406h0.7763672v-2.7753906
		c0-0.4160156-0.1333008-0.7353516-0.3989258-0.9599609C24.3466797,49.9013672,23.9770508,49.7890625,23.503418,49.7890625z
		 M24.1552734,52.7919922c-0.2441406,0.2734375-0.5395508,0.4101562-0.8862305,0.4101562
		c-0.390625,0-0.5859375-0.1728516-0.5859375-0.5205078c0-0.2441406,0.1171875-0.4228516,0.3515625-0.5380859
		c0.234375-0.1142578,0.6079102-0.1767578,1.1206055-0.1865234V52.7919922z"/>
	<polygon points="27.3925781,52.9902344 26.484375,49.8847656 25.5981445,49.8847656 26.9165039,53.8613281 27.8540039,53.8613281 
		29.1650391,49.8847656 28.2861328,49.8847656 	"/>
	<path d="M31.2675781,49.7890625c-0.5473633,0-0.972168,0.1816406-1.2749023,0.5458984s-0.4541016,0.8779297-0.4541016,1.5419922
		c0,0.6542969,0.1611328,1.1630859,0.4833984,1.5263672c0.3222656,0.3642578,0.7788086,0.5458984,1.3696289,0.5458984
		c0.2539062,0,0.5009766-0.0341797,0.7431641-0.1025391s0.453125-0.1630859,0.6337891-0.2861328l-0.3154297-0.6513672
		c-0.3027344,0.1708984-0.6269531,0.2568359-0.9736328,0.2568359c-0.6396484,0-0.9960938-0.3417969-1.0693359-1.0253906h2.4902344
		c0.0244141-0.1367188,0.0371094-0.28125,0.0371094-0.4326172c0-0.6054688-0.1464844-1.0771484-0.4394531-1.4130859
		C32.2050781,49.9570312,31.7949219,49.7890625,31.2675781,49.7890625z M30.4174805,51.5322266
		c0.0683594-0.6542969,0.3442383-0.9814453,0.8276367-0.9814453c0.2539062,0,0.4521484,0.0859375,0.5966797,0.2558594
		c0.1445312,0.171875,0.2207031,0.4130859,0.2304688,0.7255859H30.4174805z"/>
	<path d="M34.5703125,50.4921875v-0.6074219h-0.7832031v3.9765625h0.8632812v-2.8125
		c0.09375-0.1416016,0.2011719-0.2441406,0.3222656-0.3076172c0.1230469-0.0634766,0.2714844-0.0947266,0.4472656-0.0947266
		c0.1708984,0,0.3300781,0.0234375,0.4765625,0.0722656l0.1757812-0.8203125
		c-0.1328125-0.0625-0.2832031-0.0947266-0.4550781-0.0947266C35.1738281,49.8037109,34.8242188,50.0332031,34.5703125,50.4921875z"
		/>
	<polygon points="40.4150391,51.9941406 38.9570312,48.5585938 37.9023438,48.5585938 37.9023438,53.8613281 38.7382812,53.8613281 
		38.7382812,49.9570312 39.9462891,52.8066406 40.8613281,52.8066406 42.0556641,49.9570312 42.0556641,53.8613281 
		42.9121094,53.8613281 42.9121094,48.5585938 41.84375,48.5585938 	"/>
	<path d="M45.5859375,49.7890625c-0.5566406,0-0.984375,0.1777344-1.2851562,0.53125s-0.4511719,0.8730469-0.4511719,1.5566406
		s0.1494141,1.2011719,0.4472656,1.5527344s0.7246094,0.5273438,1.28125,0.5273438s0.9863281-0.1757812,1.2851562-0.5273438
		c0.3007812-0.3515625,0.4511719-0.8691406,0.4511719-1.5527344s-0.1484375-1.203125-0.4472656-1.5566406
		C46.5703125,49.9667969,46.1425781,49.7890625,45.5859375,49.7890625z M46.2158203,52.8574219
		C46.0742188,53.078125,45.8613281,53.1875,45.578125,53.1875c-0.2773438,0-0.4882812-0.109375-0.6289062-0.3300781
		c-0.1425781-0.21875-0.2128906-0.546875-0.2128906-0.9804688c0-0.875,0.2832031-1.3115234,0.8496094-1.3115234
		c0.5615234,0,0.8417969,0.4365234,0.8417969,1.3115234C46.4277344,52.3105469,46.3574219,52.6386719,46.2158203,52.8574219z"/>
	<path d="M50.4414062,50.2207031c-0.1210938-0.140625-0.2675781-0.2480469-0.4394531-0.3222656
		c-0.1699219-0.0722656-0.3583984-0.109375-0.5634766-0.109375c-0.46875,0-0.8330078,0.1835938-1.0908203,0.5488281
		c-0.2597656,0.3671875-0.3886719,0.8769531-0.3886719,1.53125c0,0.6640625,0.1269531,1.1777344,0.3808594,1.5419922
		s0.6103516,0.5458984,1.0693359,0.5458984c0.4882812,0,0.859375-0.2148438,1.1132812-0.6445312v0.5488281h0.7841797v-5.6396484
		h-0.8652344V50.2207031z M50.4414062,52.7773438c-0.1210938,0.1318359-0.2421875,0.2265625-0.3623047,0.2851562
		s-0.2529297,0.0878906-0.3994141,0.0878906c-0.5566406,0-0.8339844-0.4335938-0.8339844-1.3027344
		c0-0.8496094,0.265625-1.2753906,0.7978516-1.2753906c0.1513672,0,0.296875,0.0322266,0.4355469,0.0957031
		c0.1396484,0.0634766,0.2607422,0.1542969,0.3623047,0.2714844V52.7773438z"/>
	<path d="M55.5839844,51.7080078c0-0.6054688-0.1464844-1.0771484-0.4394531-1.4130859
		c-0.2929688-0.3378906-0.703125-0.5058594-1.2304688-0.5058594c-0.546875,0-0.9726562,0.1816406-1.2753906,0.5458984
		s-0.453125,0.8779297-0.453125,1.5419922c0,0.6542969,0.1601562,1.1630859,0.4824219,1.5263672
		c0.3222656,0.3642578,0.7792969,0.5458984,1.3701172,0.5458984c0.2539062,0,0.5009766-0.0341797,0.7431641-0.1025391
		s0.453125-0.1630859,0.6337891-0.2861328l-0.3154297-0.6513672c-0.3027344,0.1708984-0.6269531,0.2568359-0.9736328,0.2568359
		c-0.6396484,0-0.9960938-0.3417969-1.0693359-1.0253906h2.4902344
		C55.5712891,52.0039062,55.5839844,51.859375,55.5839844,51.7080078z M53.0644531,51.5322266
		c0.0683594-0.6542969,0.34375-0.9814453,0.8271484-0.9814453c0.2539062,0,0.4521484,0.0859375,0.5966797,0.2558594
		c0.1445312,0.171875,0.2207031,0.4130859,0.2304688,0.7255859H53.0644531z"/>
	<path d="M22.9072266,4.4443359c7.7021484,3.1401367,12.6787109,10.4311523,12.6787109,18.5742188
		c0,8.1015625-4.9423828,15.3789062-12.5913086,18.5380859c-0.3828125,0.1582031-0.5654297,0.5966797-0.4072266,0.9794922
		C22.7070312,42.8251953,22.9863281,43,23.28125,43c0.0952148,0,0.1923828-0.0185547,0.2856445-0.0566406
		c8.2124023-3.3925781,13.519043-11.2128906,13.519043-19.9248047c0-8.7558594-5.3427734-16.5917969-13.6123047-19.9628906
		c-0.3833008-0.1577148-0.8217773,0.0283203-0.9775391,0.4111328C22.3393555,3.8505859,22.5239258,4.2880859,22.9072266,4.4443359z"
		/>
	<path d="M24.4790039,17.7397461c1.246582,0,2.2607422,1.0141602,2.2607422,2.2602539c0,0.2763672,0.2236328,0.5,0.5,0.5
		s0.5-0.2236328,0.5-0.5c0-1.2460938,1.0141602-2.2602539,2.2602539-2.2602539c0.2763672,0,0.5-0.2236328,0.5-0.5
		s-0.2236328-0.5-0.5-0.5c-1.2460938,0-2.2602539-1.0141602-2.2602539-2.2607422c0-0.2763672-0.2236328-0.5-0.5-0.5
		s-0.5,0.2236328-0.5,0.5c0,1.246582-1.0141602,2.2607422-2.2607422,2.2607422c-0.2763672,0-0.5,0.2236328-0.5,0.5
		S24.2026367,17.7397461,24.4790039,17.7397461z M27.2397461,16.2124023
		c0.2612305,0.4145508,0.612793,0.7661133,1.0268555,1.0273438c-0.4140625,0.2612305-0.765625,0.612793-1.0268555,1.0268555
		c-0.2612305-0.4140625-0.612793-0.765625-1.0273438-1.0268555C26.6269531,16.9785156,26.9785156,16.6269531,27.2397461,16.2124023z
		"/>
	<path d="M24.7290039,11.5239258c0,0.2763672,0.2236328,0.5,0.5,0.5s0.5-0.2236328,0.5-0.5
		c0-0.7651367,0.6220703-1.387207,1.387207-1.387207c0.2763672,0,0.5-0.2236328,0.5-0.5s-0.2236328-0.5-0.5-0.5
		c-0.7651367,0-1.387207-0.6220703-1.387207-1.3867188c0-0.2763672-0.2236328-0.5-0.5-0.5s-0.5,0.2236328-0.5,0.5
		c0,0.7646484-0.6220703,1.3867188-1.3867188,1.3867188c-0.2763672,0-0.5,0.2236328-0.5,0.5s0.2236328,0.5,0.5,0.5
		C24.1069336,10.1367188,24.7290039,10.7587891,24.7290039,11.5239258z M25.2290039,9.2099609
		c0.1240234,0.159668,0.2670898,0.3032227,0.4267578,0.4267578c-0.159668,0.1240234-0.3027344,0.2670898-0.4267578,0.4267578
		c-0.1235352-0.159668-0.2670898-0.3027344-0.4267578-0.4267578C24.9619141,9.5131836,25.1054688,9.3696289,25.2290039,9.2099609z"
		/>
	<path d="M19.3730469,14.1767578c0.815918,0,1.4794922,0.6635742,1.4794922,1.4794922c0,0.2763672,0.2236328,0.5,0.5,0.5
		s0.5-0.2236328,0.5-0.5c0-0.815918,0.6635742-1.4794922,1.4790039-1.4794922c0.2763672,0,0.5-0.2236328,0.5-0.5
		s-0.2236328-0.5-0.5-0.5c-0.8154297,0-1.4790039-0.6635742-1.4790039-1.4790039c0-0.2763672-0.2236328-0.5-0.5-0.5
		s-0.5,0.2236328-0.5,0.5c0,0.8154297-0.6635742,1.4790039-1.4794922,1.4790039c-0.2763672,0-0.5,0.2236328-0.5,0.5
		S19.0966797,14.1767578,19.3730469,14.1767578z M21.3525391,13.1889648c0.1391602,0.1845703,0.3032227,0.3486328,0.487793,0.487793
		c-0.1845703,0.1391602-0.3486328,0.3037109-0.487793,0.487793c-0.1391602-0.184082-0.3037109-0.3486328-0.487793-0.487793
		C21.0488281,13.5375977,21.2133789,13.3735352,21.3525391,13.1889648z"/>
	<path d="M22.1025391,28.9423828c0-0.4140625-0.3359375-0.75-0.75-0.75c-6.6025391,0-9.3110352-3.4873047-10.0112305-4.6083984
		c0.7363281-1.1074219,3.5864258-4.6347656,10.0112305-4.6347656c0.4140625,0,0.75-0.3359375,0.75-0.75s-0.3359375-0.75-0.75-0.75
		c-8.4902344,0-11.4262695,5.5439453-11.546875,5.7797852c-0.1064453,0.2080078-0.1098633,0.4536133-0.0092773,0.6645508
		c0.112793,0.2368164,2.8662109,5.7988281,11.5561523,5.7988281C21.7666016,29.6923828,22.1025391,29.3564453,22.1025391,28.9423828
		z"/>
	<path d="M22.2770386,22.6173706c-0.1119995-1.3487549-0.4483032-2.3361206-0.8508911-2.3361206
		c-1.8198853,0-3.2952271,1.4752808-3.2952271,3.2952271c0,1.8198853,1.4753418,3.2952271,3.2952271,3.2952271
		c0.4025879,0,0.7388916-0.9873657,0.8508911-2.3361206c-0.5133667-0.0238037-0.9247437-0.4398804-0.9247437-0.9591064
		S21.7636719,22.6411743,22.2770386,22.6173706z"/>
	<path d="M49.5263672,34.9355469c0.1845703,0,0.3632812-0.0673828,0.5009766-0.1923828
		c0.1582031-0.1416016,0.2490234-0.3447266,0.2490234-0.5576172V12.9492188c0-0.2133789-0.0908203-0.4165039-0.2490234-0.5585938
		c-0.1591797-0.1425781-0.3720703-0.2104492-0.5830078-0.1870117l-11.7783203,1.2958984
		c-0.4121094,0.0454102-0.7089844,0.4160156-0.6630859,0.8276367c0.0449219,0.4116211,0.4082031,0.7104492,0.8271484,0.6635742
		l10.9462891-1.2045898v19.5644531l-10.9550781-1.1767578c-0.4228516-0.0458984-0.78125,0.2539062-0.8261719,0.6660156
		c-0.0439453,0.4121094,0.2539062,0.78125,0.6660156,0.8261719l11.7851562,1.265625
		C49.4726562,34.9345703,49.5,34.9355469,49.5263672,34.9355469z"/>
	<path d="M47.2767944,31.6811523V15.4604492l-9.338623,1.0273438c0.6669312,2.1141968,1.1003418,4.5326538,1.1003418,7.1034546
		c0,2.5645142-0.4316406,4.9771118-1.0957642,7.0875854L47.2767944,31.6811523z"/>
</g>
</svg>
